<?xml version="1.0" encoding="iso-8859-1"?>
<!-- Generator: Adobe Illustrator 19.0.0, SVG Export Plug-In . SVG Version: 6.00 Build 0)  -->
<svg version="1.1" id="Layer_1" xmlns="http://www.w3.org/2000/svg" xmlns:xlink="http://www.w3.org/1999/xlink" x="0px" y="0px"
	 viewBox="0 0 512 512" style="enable-background:new 0 0 512 512;" xml:space="preserve">
<path style="fill:#415E72;" d="M0,355.2v-324c0.104-5.704,4.696-10.296,10.4-10.4h491.2c5.704,0.104,10.296,4.696,10.4,10.4v324H0z"
	/>
<g>
	<path style="fill:#CFDCE5;" d="M512,355.2v41.6c-0.104,5.704-4.696,10.296-10.4,10.4H10.4c-5.704-0.104-10.296-4.696-10.4-10.4
		v-41.6H512z"/>
	<rect x="146.4" y="480.8" style="fill:#CFDCE5;" width="219.2" height="10.4"/>
</g>
<polygon style="fill:#AAC1CE;" points="328.8,480.8 183.2,480.8 193.6,407.2 318.4,407.2 "/>
<rect x="20.8" y="41.6" style="fill:#FFFFFF;" width="470.4" height="292.8"/>
<polygon style="fill:#8BA0AE;" points="318.4,407.2 193.6,407.2 187.792,448.28 320.272,420.424 "/>
<rect x="260.208" y="110.296" style="fill:#CFDCE5;" width="150.392" height="15.272"/>
<rect x="101.4" y="110.296" style="fill:#25B6D2;" width="158.808" height="15.272"/>
<rect x="205.272" y="156.856" style="fill:#CFDCE5;" width="205.328" height="15.272"/>
<rect x="101.4" y="156.856" style="fill:#E04F5F;" width="103.872" height="15.272"/>
<rect x="367.104" y="203.432" style="fill:#CFDCE5;" width="43.488" height="15.272"/>
<rect x="101.4" y="203.432" style="fill:#25B6D2;" width="265.68" height="15.272"/>
<rect x="144.16" y="250" style="fill:#CFDCE5;" width="266.48" height="15.272"/>
<rect x="101.4" y="250" style="fill:#E04F5F;" width="42.72" height="15.272"/>
<g>
</g>
<g>
</g>
<g>
</g>
<g>
</g>
<g>
</g>
<g>
</g>
<g>
</g>
<g>
</g>
<g>
</g>
<g>
</g>
<g>
</g>
<g>
</g>
<g>
</g>
<g>
</g>
<g>
</g>
</svg>
