<svg id="Layer_3" enable-background="new 0 0 64 64" height="512" viewBox="0 0 64 64" width="512" xmlns="http://www.w3.org/2000/svg"><g><g><path d="m32 18h26v18h-26z" fill="#bb9d68"/></g><g><path d="m32 18h23v18h-23z" fill="#f9d18b"/></g><g><path d="m52 25h6v4h-6z" fill="#a8b0bc"/></g><g><path d="m42 22h6v3c0 1.657-1.343 3-3 3-1.657 0-3-1.343-3-3z" fill="#7e848d"/></g><g><path d="m43.5 27.584c.893-.52 1.5-1.476 1.5-2.584v-3h-3v3c0 1.108.607 2.064 1.5 2.584z" fill="#a8b0bc"/></g><g><path d="m32 36h30v26h-30z" fill="#916b43"/></g><g><path d="m32 36h27v26h-27z" fill="#c18e59"/></g><g><path d="m44 36h6v8h-6z" fill="#a8b0bc"/></g><g><path d="m44 54h6v8h-6z" fill="#a8b0bc"/></g><g><path d="m2 32h30v30h-30z" fill="#bb9d68"/></g><g><path d="m2 32h27v30h-27z" fill="#f9d18b"/></g><g><path d="m14 32h6v10h-6z" fill="#a8b0bc"/></g><g><path d="m8 8h30v24h-30z" fill="#916b43"/></g><g><path d="m8 8h27v24h-27z" fill="#c18e59"/></g><g><path d="m21 8h4v24h-4z" fill="#a8b0bc"/></g><g><path d="m6 2h34v6h-34z" fill="#6d5032"/></g><g><path d="m6 2h31v6h-31z" fill="#916b43"/></g><g><path d="m19 2h8v6h-8z" fill="#a8b0bc"/></g><g><path d="m32 63h-30c-.553 0-1-.447-1-1v-30c0-.553.447-1 1-1h30c.553 0 1 .447 1 1v30c0 .553-.447 1-1 1zm-29-2h28v-28h-28z"/></g><g><path d="m9 57h16v2h-16z"/></g><g><path d="m11 46h2v9h-2z"/></g><g><path d="m14.293 49.707-2.293-2.293-2.293 2.293-1.414-1.414 3-3c.391-.391 1.023-.391 1.414 0l3 3z"/></g><g><path d="m21 46h2v9h-2z"/></g><g><path d="m24.293 49.707-2.293-2.293-2.293 2.293-1.414-1.414 3-3c.391-.391 1.023-.391 1.414 0l3 3z"/></g><g><path d="m62 63h-30c-.553 0-1-.447-1-1v-26c0-.553.447-1 1-1h30c.553 0 1 .447 1 1v26c0 .553-.447 1-1 1zm-29-2h28v-24h-28z"/></g><g><path d="m50 45h-6c-.553 0-1-.447-1-1v-8h2v7h4v-7h2v8c0 .553-.447 1-1 1z"/></g><g><path d="m51 62h-2v-7h-4v7h-2v-8c0-.553.447-1 1-1h6c.553 0 1 .447 1 1z"/></g><g><path d="m40 9h-34c-.553 0-1-.447-1-1v-6c0-.553.447-1 1-1h34c.553 0 1 .447 1 1v6c0 .553-.447 1-1 1zm-33-2h32v-4h-32z"/></g><g><path d="m18 2h2v6h-2z"/></g><g><path d="m26 2h2v6h-2z"/></g><g><path d="m20 8h2v24h-2z"/></g><g><path d="m24 8h2v24h-2z"/></g><g><path d="m30 11h5v2h-5z"/></g><g><path d="m30 15h5v2h-5z"/></g><g><path d="m59 36h-2v-17h-19v-2h20c.553 0 1 .447 1 1z"/></g><g><path d="m45 29c-2.206 0-4-1.794-4-4v-3c0-.553.447-1 1-1h6c.553 0 1 .447 1 1v3c0 2.206-1.794 4-4 4zm-2-6v2c0 1.103.897 2 2 2s2-.897 2-2v-2z"/></g><g><path d="m44 28h2v4h-2z"/></g><g><path d="m42 31h6v2h-6z"/></g><g><path d="m58 30h-6c-.553 0-1-.447-1-1v-4c0-.553.447-1 1-1h6v2h-5v2h5z"/></g><g><path d="m20 43h-6c-.553 0-1-.447-1-1v-10h2v9h4v-9h2v10c0 .553-.447 1-1 1z"/></g><g><path d="m38 33h-6v-2h5v-23h2v24c0 .553-.447 1-1 1z"/></g><g><path d="m7 8h2v24h-2z"/></g></g></svg>