<svg width="400" height="425" viewBox="0 0 400 425" fill="none" xmlns="http://www.w3.org/2000/svg">
<g clip-path="url(#clip0)">
<path d="M314.282 376.063H81.6107C81.4487 376.063 81.2934 375.954 81.1789 375.762C81.0643 375.569 81 375.308 81 375.035C81 374.763 81.0643 374.501 81.1789 374.309C81.2934 374.116 81.4487 374.008 81.6107 374.008H314.282C314.444 374.008 314.6 374.116 314.714 374.309C314.829 374.501 314.893 374.763 314.893 375.035C314.893 375.308 314.829 375.569 314.714 375.762C314.6 375.954 314.444 376.063 314.282 376.063Z" fill="#3F3D56"/>
<path d="M202.563 241.478C211.669 241.478 219.051 229.059 219.051 213.739C219.051 198.419 211.669 186 202.563 186C193.456 186 186.074 198.419 186.074 213.739C186.074 229.059 193.456 241.478 202.563 241.478Z" fill="#2F2E41"/>
<path d="M186.896 391.808L186.46 379.235L215.08 370.415L215.725 388.973L186.896 391.808Z" fill="#FFB8B8"/>
<path d="M188.283 370.043L189.125 394.293L180.05 395.185L178.676 355.668C179.868 355.55 181.062 355.829 182.19 356.488C183.318 357.147 184.357 358.174 185.249 359.509C186.141 360.843 186.868 362.461 187.389 364.268C187.909 366.076 188.213 368.038 188.283 370.043Z" fill="#2F2E41"/>
<path d="M199.344 391.693L194.59 401.423L170.019 375.206L177.035 360.845L199.344 391.693Z" fill="#FFB8B8"/>
<path d="M179.542 406.088L188.71 387.323L195.734 397.034L180.793 427.615C179.87 426.34 179.106 424.771 178.544 422.999C177.982 421.227 177.633 419.287 177.517 417.288C177.401 415.289 177.52 413.271 177.868 411.349C178.215 409.428 178.784 407.64 179.542 406.088V406.088Z" fill="#2F2E41"/>
<path d="M185.664 346.444L182.415 372.209C182.34 372.802 182.344 373.416 182.427 374.006C182.51 374.596 182.669 375.148 182.894 375.623C183.119 376.097 183.403 376.482 183.726 376.749C184.05 377.017 184.405 377.161 184.765 377.17L216.703 378.037C217.063 378.047 217.42 377.923 217.748 377.673C218.076 377.424 218.367 377.056 218.601 376.595C218.834 376.134 219.005 375.592 219.099 375.007C219.194 374.423 219.21 373.81 219.148 373.214L216.354 346.582C216.254 345.631 215.958 344.769 215.519 344.148C215.079 343.527 214.523 343.187 213.948 343.187H188.053C187.493 343.187 186.951 343.51 186.516 344.103C186.081 344.696 185.78 345.522 185.664 346.444V346.444Z" fill="#2F2E41"/>
<path d="M190.96 355.515C190.96 355.515 159.815 322.64 153.708 340.105C150.654 348.837 152.181 357.313 154.471 363.606C156.596 369.335 159.647 373.929 163.267 376.85L188.517 397.637L197.677 381.199L191.57 371.953L190.96 355.515Z" fill="#2F2E41"/>
<path d="M206.838 350.378C206.838 350.378 247.143 330.858 239.204 367.844C231.265 404.829 201.341 390.446 201.341 390.446L198.288 375.035L208.67 362.707L206.838 350.378Z" fill="#2F2E41"/>
<path d="M202.77 245.306C211.053 245.306 217.769 234.009 217.769 220.073C217.769 206.137 211.053 194.84 202.77 194.84C194.486 194.84 187.77 206.137 187.77 220.073C187.77 234.009 194.486 245.306 202.77 245.306Z" fill="#FFB8B8"/>
<path d="M203.555 354.456C197.323 354.297 191.122 352.923 185.078 350.36L184.899 350.278L176.529 285.508C175.776 279.816 176.288 273.858 177.969 268.758C179.649 263.658 182.381 259.77 185.649 257.827C195.743 251.734 206.746 251.365 216.977 256.775H216.977C220.41 258.636 223.3 262.606 225.069 267.893C226.839 273.181 227.359 279.396 226.525 285.299L217.176 350.224L217.045 350.329C213.16 353.425 208.301 354.456 203.555 354.456Z" fill="#CCCCCC"/>
<path d="M192.313 359.487C192.617 358.066 193.102 356.775 193.735 355.703C194.368 354.632 195.132 353.807 195.975 353.287C196.818 352.766 197.718 352.563 198.613 352.692C199.507 352.82 200.374 353.277 201.153 354.03L217.633 329.964L219.124 348.876L203.245 368.83C202.407 370.946 201.136 372.47 199.674 373.115C198.212 373.76 196.66 373.48 195.312 372.328C193.965 371.176 192.915 369.233 192.362 366.867C191.809 364.5 191.792 361.874 192.313 359.487V359.487Z" fill="#FFB8B8"/>
<path d="M208.03 364.736C207.762 364.736 207.496 364.67 207.239 364.541C206.822 364.337 206.44 363.967 206.125 363.464C205.81 362.961 205.572 362.338 205.43 361.647L203.44 352.166C203.254 351.29 203.23 350.339 203.372 349.44C203.514 348.541 203.815 347.735 204.236 347.13L226.69 324.451L217.838 258.021L218.064 257.93C218.155 257.891 227.224 254.419 230.94 271.091C233.543 282.767 243.173 308.155 242.494 325.311C242.365 328.743 241.552 332.001 240.187 334.56C238.821 337.119 236.983 338.829 234.969 339.414L209.694 363.776C209.218 364.397 208.633 364.735 208.03 364.736Z" fill="#CCCCCC"/>
<path d="M210.549 357.234C210.245 355.813 209.759 354.521 209.127 353.45C208.494 352.378 207.729 351.553 206.886 351.033C206.043 350.513 205.143 350.31 204.248 350.438C203.354 350.566 202.487 351.023 201.709 351.776L185.229 327.711L183.737 346.623L199.616 366.576C200.455 368.692 201.725 370.217 203.187 370.861C204.65 371.506 206.201 371.226 207.549 370.074C208.897 368.923 209.946 366.98 210.499 364.613C211.052 362.246 211.07 359.621 210.549 357.234V357.234Z" fill="#FFB8B8"/>
<path d="M196.485 364.736C195.882 364.735 195.297 364.397 194.821 363.776L167.714 341.469C165.7 340.884 163.862 339.174 162.496 336.615C161.131 334.056 160.318 330.798 160.189 327.366C159.51 310.21 170.972 282.767 173.575 271.091C177.291 254.419 186.36 257.891 186.451 257.93L186.676 258.021L175.993 326.506L200.279 347.13C200.699 347.735 201 348.541 201.142 349.44C201.284 350.339 201.261 351.29 201.075 352.166L199.085 361.647C198.943 362.338 198.705 362.961 198.39 363.464C198.075 363.967 197.693 364.337 197.276 364.541C197.019 364.67 196.753 364.736 196.485 364.736V364.736Z" fill="#CCCCCC"/>
<path d="M228.822 375.035H174.471C173.338 375.033 172.251 374.275 171.45 372.926C170.649 371.578 170.198 369.75 170.196 367.844V317.503C170.198 315.596 170.649 313.768 171.45 312.42C172.251 311.072 173.338 310.313 174.471 310.311H228.822C229.956 310.313 231.042 311.072 231.844 312.42C232.645 313.768 233.096 315.596 233.097 317.503V367.844C233.096 369.75 232.645 371.578 231.844 372.926C231.042 374.275 229.956 375.033 228.822 375.035V375.035Z" fill="white"/>
<path d="M187.62 219.046C186.731 215.253 188.19 210.732 190.353 208.895C192.517 207.057 195.128 207.406 197.442 208.618C199.387 209.635 201.21 211.213 203.108 212.458C204.978 213.853 207.022 214.465 209.064 214.243C211.088 213.858 213.102 211.949 213.93 208.818C214.789 205.573 214.205 201.613 212.883 198.844C211.476 196.166 209.656 194.198 207.624 193.157C203.161 190.513 198.007 190.435 193.864 194.28C189.721 198.124 186.905 206.311 187.762 214.139" fill="#2F2E41"/>
<path d="M196 346.286V333.714C196 332.464 196.051 331.266 196.143 330.382C196.234 329.499 196.358 329.001 196.486 329H199.514C199.642 329.001 199.766 329.499 199.857 330.382C199.949 331.266 200 332.464 200 333.714V346.286C200 347.536 199.949 348.734 199.857 349.618C199.766 350.501 199.642 350.999 199.514 351H196.486C196.358 350.999 196.234 350.501 196.143 349.618C196.051 348.734 196 347.536 196 346.286V346.286Z" fill="black"/>
<path d="M191.809 347.024L196.491 347.086C196.956 347.093 197.402 347.15 197.73 347.246C198.058 347.341 198.241 347.467 198.24 347.596L198.199 350.623C198.197 350.752 198.01 350.873 197.68 350.96C197.35 351.047 196.903 351.092 196.437 351.086L191.756 351.023C191.29 351.017 190.845 350.96 190.517 350.864C190.189 350.768 190.005 350.642 190.007 350.513L190.047 347.486C190.049 347.357 190.236 347.236 190.567 347.15C190.897 347.063 191.344 347.017 191.809 347.024V347.024Z" fill="black"/>
<path d="M204.809 347.024L209.491 347.086C209.956 347.093 210.402 347.15 210.73 347.246C211.058 347.341 211.241 347.467 211.24 347.596L211.199 350.623C211.197 350.752 211.01 350.873 210.68 350.96C210.35 351.047 209.903 351.092 209.437 351.086L204.756 351.023C204.29 351.017 203.845 350.96 203.517 350.864C203.189 350.768 203.005 350.642 203.007 350.513L203.047 347.486C203.049 347.357 203.236 347.236 203.567 347.15C203.897 347.063 204.344 347.017 204.809 347.024V347.024Z" fill="black"/>
<path d="M204.809 329.024L209.491 329.086C209.956 329.093 210.402 329.15 210.73 329.246C211.058 329.341 211.241 329.467 211.24 329.596L211.199 332.623C211.197 332.752 211.01 332.873 210.68 332.96C210.35 333.047 209.903 333.092 209.437 333.086L204.756 333.023C204.29 333.017 203.845 332.96 203.517 332.864C203.189 332.768 203.005 332.642 203.007 332.513L203.047 329.486C203.049 329.357 203.236 329.236 203.567 329.15C203.897 329.063 204.344 329.017 204.809 329.024V329.024Z" fill="black"/>
<path d="M201 346.286V333.714C201 332.464 201.051 331.266 201.143 330.382C201.234 329.499 201.358 329.001 201.486 329H204.514C204.642 329.001 204.766 329.499 204.857 330.382C204.949 331.266 205 332.464 205 333.714V346.286C205 347.536 204.949 348.734 204.857 349.618C204.766 350.501 204.642 350.999 204.514 351H201.486C201.358 350.999 201.234 350.501 201.143 349.618C201.051 348.734 201 347.536 201 346.286V346.286Z" fill="black"/>
<path d="M71 67V123H127V67H71ZM101.476 110.674C101.476 116.124 98.276 118.612 93.614 118.612C89.402 118.612 86.964 116.438 85.714 113.8L90.002 111.212C90.828 112.674 91.578 113.912 93.39 113.912C95.114 113.912 96.214 113.236 96.214 110.6V92.712H101.476V110.674ZM113.924 118.612C109.036 118.612 105.874 116.288 104.336 113.236L108.624 110.762C109.75 112.6 111.224 113.962 113.812 113.962C115.986 113.962 117.388 112.874 117.388 111.362C117.388 109.562 115.962 108.924 113.55 107.862L112.238 107.3C108.438 105.688 105.926 103.65 105.926 99.362C105.926 95.412 108.938 92.412 113.626 92.412C116.976 92.412 119.376 93.574 121.102 96.624L117.002 99.25C116.102 97.638 115.126 97 113.614 97C112.078 97 111.102 97.976 111.102 99.25C111.102 100.826 112.078 101.462 114.34 102.45L115.652 103.012C120.128 104.924 122.64 106.888 122.64 111.286C122.64 116.012 118.914 118.61 113.926 118.61L113.924 118.612Z" fill="#29F48F"/>
<path d="M23.025 163.711L54.477 153.164L86.776 163.524L81.5463 202.688L54.477 216.798L27.8312 202.876L23.025 163.711Z" fill="#29F48F"/>
<path d="M86.776 163.524L54.477 153.164V216.798L81.5462 202.712L86.776 163.524V163.524Z" fill="#29F48F"/>
<path d="M54.5268 160.594L34.9285 201.634L42.2497 201.516L46.1845 192.258H63.7658L68.074 201.634L75.0715 201.751L54.5268 160.594ZM54.5768 173.743L61.2007 186.774H48.7492L54.5768 173.743Z" fill="white"/>
<path d="M269.804 121.402L265.312 71H314.688L310.19 121.394L289.97 127L269.804 121.402Z" fill="#29F48F"/>
<path d="M290 122.716L306.34 118.186L310.184 75.122H290V122.716Z" fill="#29F48F"/>
<path d="M290 93.382H298.18L298.744 87.052H290V80.87H305.5L305.352 82.528L303.834 99.564H290V93.382V93.382Z" fill="white"/>
<path d="M290.038 109.436L290.01 109.444L283.126 107.584L282.686 102.654H276.48L277.346 112.36L290.008 115.876L290.038 115.868V109.436V109.436Z" fill="#EBEBEB"/>
<path d="M297.654 99.302L296.91 107.58L290.016 109.44V115.872L302.688 112.36L302.782 111.316L303.856 99.302H297.654V99.302Z" fill="white"/>
<path d="M290.022 80.87V87.052H275.09L274.966 85.662L274.684 82.528L274.536 80.87H290.022V80.87Z" fill="#EBEBEB"/>
<path d="M290 93.382V99.564H283.202L283.078 98.174L282.798 95.04L282.65 93.382H290V93.382Z" fill="#EBEBEB"/>
<g opacity="0.64">
<path d="M178.804 68.402L174.31 18H223.69L219.19 68.394L198.97 74L178.804 68.402Z" fill="#29F48F"/>
<path d="M199 69.716L215.34 65.186L219.184 22.122H199V69.716Z" fill="#29F48F"/>
<path d="M199 40.814H190.82L190.256 34.484H199V28.302H183.5L183.648 29.962L185.166 46.996H199V40.814V40.814Z" fill="#EBEBEB"/>
<path d="M199 56.868L198.972 56.876L192.088 55.018L191.648 50.088H185.442L186.308 59.792L198.972 63.308L199 63.3V56.868Z" fill="#EBEBEB"/>
<path d="M198.978 40.814V46.996H206.59L205.874 55.014L198.978 56.874V63.306L211.652 59.792L211.744 58.748L213.196 42.474L213.348 40.814H198.978V40.814Z" fill="white"/>
<path d="M198.978 28.302V34.484H213.91L214.034 33.096L214.316 29.962L214.464 28.302H198.978V28.302Z" fill="white"/>
</g>
<g clip-path="url(#clip1)">
<path d="M338.166 155L306.136 187L316 196.864L357.824 155.032H338.208L338.166 155ZM338.208 184.52L320.946 201.738L338.208 219H357.864L340.634 201.75L357.864 184.52H338.208Z" fill="#29F48F"/>
</g>
<path d="M203.823 219.897C203.828 220.035 203.845 220.175 203.873 220.315L204.201 221.957C204.493 223.415 205.886 224.557 207.372 224.557H209.732C211.24 224.557 212.541 223.332 212.633 221.827L212.69 220.88L213.797 219.773C213.927 219.643 214 219.467 214 219.282V218.137C214 217.754 213.689 217.443 213.306 217.443H205.29C204.796 217.443 204.141 217.663 203.761 218.211C203.23 218.013 202.702 218.06 202.251 218.228C201.873 217.667 201.209 217.443 200.71 217.443H192.694C192.311 217.443 192 217.754 192 218.137V219.282C192 219.467 192.073 219.643 192.203 219.773L193.31 220.88L193.367 221.827C193.459 223.332 194.76 224.557 196.268 224.557H198.628C200.114 224.557 201.507 223.415 201.799 221.957L202.127 220.315C202.154 220.177 202.171 220.04 202.177 219.904C203 219.282 203.823 219.897 203.823 219.897ZM193.722 219.268C193.625 219.366 193.49 219.421 193.353 219.421C193.216 219.421 193.082 219.366 192.985 219.268C192.888 219.172 192.833 219.038 192.833 218.901C192.833 218.763 192.888 218.629 192.985 218.533C193.082 218.436 193.216 218.38 193.353 218.38C193.49 218.38 193.624 218.436 193.722 218.533C193.818 218.629 193.874 218.764 193.874 218.901C193.874 219.037 193.818 219.172 193.722 219.268ZM200.766 220.043L200.438 221.685C200.277 222.489 199.448 223.169 198.628 223.169H196.268C195.494 223.169 194.8 222.516 194.753 221.743L194.658 220.173C194.636 219.814 194.755 219.476 194.993 219.223C195.231 218.97 195.561 218.831 195.921 218.831H199.773C200.115 218.831 200.404 218.954 200.587 219.177C200.769 219.4 200.833 219.707 200.766 220.043ZM211.342 220.173L211.247 221.743C211.2 222.516 210.506 223.169 209.732 223.169H207.372C206.552 223.169 205.723 222.489 205.562 221.685L205.234 220.043C205.167 219.707 205.231 219.4 205.413 219.177C205.596 218.954 205.885 218.831 206.227 218.831H210.079C210.439 218.831 210.769 218.971 211.007 219.223C211.245 219.476 211.364 219.814 211.342 220.173ZM213.015 219.268C212.918 219.366 212.783 219.421 212.646 219.421C212.51 219.421 212.376 219.366 212.279 219.268C212.181 219.172 212.126 219.038 212.126 218.901C212.126 218.763 212.181 218.629 212.279 218.533C212.376 218.436 212.51 218.38 212.646 218.38C212.784 218.38 212.918 218.436 213.015 218.533C213.111 218.629 213.167 218.764 213.167 218.901C213.167 219.037 213.111 219.172 213.015 219.268Z" fill="black"/>
<path d="M198.57 286.435C198.655 287.543 198.639 288.656 198.521 289.761C198.516 289.917 198.47 290.068 198.388 290.2C198.305 290.332 198.189 290.44 198.051 290.514C197.162 291.169 194.182 291.326 193.811 289.934C193.674 289.929 193.783 289.479 193.653 289.496C193.392 289.475 193.14 289.393 192.917 289.257C192.694 289.122 192.506 288.936 192.369 288.716C192.374 287.193 192.543 281.702 189.801 283.18C189.205 283.51 188.758 284.052 188.551 284.697C188.366 285.26 188.28 285.85 188.294 286.442C188.273 287.2 188.464 288.029 188.491 288.939C188.502 289.345 188.567 289.448 188.262 289.794C187.771 290.352 186.914 289.881 186.451 289.269C186.255 288.96 186.147 288.605 186.14 288.24C185.771 284.263 186.134 280.253 187.21 276.405C187.602 275.099 187.739 274.91 188.989 274.617C190.411 274.307 191.873 274.221 193.322 274.363C194.447 274 197.115 272.034 198.266 273.594C200.013 273.209 201.82 273.175 203.58 273.494C205.341 273.814 207.019 274.479 208.515 275.452C210.032 275.566 211.553 275.593 213.072 275.534C213.286 275.398 213.537 275.252 213.755 275.127C213.915 275.019 214.095 274.944 214.285 274.905C214.531 274.867 214.852 274.856 214.927 275.16C214.992 275.472 215.014 275.79 214.992 276.108C214.984 276.299 214.913 276.483 214.788 276.629C214.663 276.775 214.493 276.876 214.304 276.915C213.877 276.845 213.463 276.712 213.076 276.52C211.685 276.558 210.829 276.482 209.438 276.52C209.661 276.758 209.652 276.915 209.814 277.229C210.214 278.273 210.348 279.399 210.203 280.506C210.058 281.613 209.64 282.668 208.985 283.576C208.887 285.158 209.007 286.756 209.018 288.343C209.024 288.89 209.062 289.41 208.543 289.773C208.086 290.045 207.571 290.21 207.039 290.254C206.508 290.298 205.973 290.221 205.476 290.028C205.205 289.873 204.963 289.674 204.761 289.437C204.583 289.457 204.404 289.46 204.226 289.448C203.923 289.364 203.661 289.173 203.489 288.912C203.39 288.733 203.306 288.547 203.237 288.355C203.237 287.612 203.21 287.321 203.21 286.579C201.667 286.853 200.084 286.808 198.56 286.449L198.57 286.435Z" fill="#CCCCCC"/>
<path d="M196.062 290.997C195.625 291.003 195.191 290.935 194.775 290.794C194.545 290.73 194.332 290.611 194.154 290.446C193.975 290.281 193.836 290.075 193.748 289.844C193.671 289.744 193.633 289.618 193.642 289.49V289.441C193.373 289.399 193.116 289.298 192.888 289.144C192.66 288.99 192.467 288.787 192.32 288.549L192.295 288.506V288.22C192.304 286.92 192.329 283.466 191.202 282.764C191.012 282.668 190.801 282.628 190.591 282.647C190.38 282.666 190.179 282.745 190.009 282.874C189.453 283.196 189.037 283.726 188.846 284.357C188.671 284.921 188.59 285.511 188.605 286.103C188.605 286.545 188.635 286.986 188.695 287.423C188.74 287.825 188.787 288.243 188.8 288.682C188.8 288.747 188.8 288.803 188.808 288.854C188.832 289.006 188.819 289.162 188.771 289.307C188.723 289.453 188.641 289.584 188.533 289.689C188.447 289.795 188.339 289.878 188.217 289.933C188.095 289.988 187.962 290.013 187.83 290.006C187.559 289.967 187.299 289.869 187.066 289.719C186.834 289.569 186.634 289.37 186.481 289.135C186.264 288.791 186.146 288.389 186.14 287.977C185.771 283.836 186.132 279.661 187.206 275.655C187.602 274.275 187.777 274.005 189.087 273.683C190.498 273.36 191.95 273.268 193.388 273.412C193.704 273.283 194.013 273.137 194.313 272.972C195.616 272.294 197.39 271.374 198.364 272.604C200.09 272.217 201.873 272.189 203.609 272.523C205.345 272.857 207.001 273.545 208.48 274.549C209.943 274.663 211.412 274.689 212.879 274.628C213.091 274.492 213.315 274.352 213.52 274.229L213.579 274.193C213.738 274.085 213.915 274.01 214.102 273.973C214.571 273.898 214.842 274.032 214.923 274.37C214.991 274.71 215.014 275.057 214.992 275.403C214.981 275.643 214.893 275.873 214.741 276.054C214.589 276.236 214.383 276.358 214.155 276.402H214.128L214.102 276.395C214.01 276.371 213.919 276.348 213.827 276.327C213.497 276.268 213.177 276.157 212.879 275.999C212.21 276.017 211.658 276.007 211.125 275.999C210.667 275.991 210.197 275.982 209.651 275.991C209.685 276.061 209.709 276.128 209.736 276.196C209.77 276.292 209.81 276.386 209.854 276.477C210.264 277.582 210.406 278.775 210.265 279.95C210.125 281.126 209.707 282.247 209.05 283.214C208.99 284.276 209.021 285.366 209.05 286.42C209.065 286.96 209.081 287.52 209.084 288.07V288.164C209.135 288.447 209.112 288.738 209.016 289.008C208.921 289.277 208.757 289.515 208.542 289.696C208.067 289.997 207.531 290.179 206.977 290.228C206.423 290.277 205.866 290.191 205.349 289.978C205.121 289.861 204.918 289.698 204.752 289.498C204.715 289.458 204.678 289.419 204.64 289.381C204.589 289.381 204.535 289.388 204.487 289.393C204.371 289.412 204.253 289.41 204.138 289.387C203.798 289.289 203.504 289.066 203.31 288.759C203.236 288.634 203.175 288.501 203.129 288.362C203.105 288.292 203.078 288.223 203.049 288.155L203.034 288.121V288.084C203.034 287.702 203.028 287.431 203.021 287.169C203.015 286.949 203.01 286.729 203.008 286.444C201.604 286.684 200.17 286.65 198.778 286.343C198.842 287.418 198.819 288.496 198.71 289.566C198.702 289.75 198.649 289.928 198.557 290.084C198.464 290.241 198.335 290.37 198.181 290.46C197.537 290.842 196.803 291.027 196.062 290.997V290.997ZM193.98 289.547H194.018L194.05 289.673C194.114 289.867 194.224 290.041 194.37 290.18C194.517 290.318 194.694 290.415 194.886 290.462C195.913 290.788 197.021 290.686 197.976 290.177C198.093 290.115 198.192 290.021 198.262 289.905C198.332 289.789 198.37 289.655 198.372 289.518C198.483 288.431 198.502 287.336 198.431 286.245L198.341 286.219L198.711 285.456L198.754 285.965C200.203 286.298 201.701 286.331 203.162 286.062L203.354 286.035V286.235C203.354 286.617 203.36 286.889 203.367 287.15C203.375 287.412 203.38 287.67 203.381 288.038C203.408 288.103 203.431 288.165 203.454 288.226C203.491 288.341 203.541 288.451 203.601 288.556C203.749 288.791 203.975 288.963 204.235 289.039C204.311 289.051 204.388 289.051 204.464 289.039C204.549 289.029 204.636 289.024 204.722 289.025H204.785L204.832 289.07C204.889 289.125 204.946 289.186 205.003 289.246C205.139 289.412 205.304 289.548 205.489 289.649C205.954 289.837 206.454 289.913 206.951 289.87C207.448 289.827 207.929 289.667 208.357 289.402C208.767 289.101 208.762 288.688 208.756 288.163V288.067C208.756 287.518 208.737 286.968 208.721 286.427C208.69 285.341 208.658 284.219 208.721 283.118V283.045L208.774 282.997C209.397 282.085 209.794 281.028 209.931 279.918C210.067 278.808 209.938 277.681 209.555 276.636C209.505 276.533 209.46 276.428 209.422 276.32C209.379 276.178 209.307 276.049 209.21 275.94L208.955 275.655L209.329 275.644C210.02 275.624 210.585 275.634 211.133 275.644C211.68 275.654 212.237 275.664 212.92 275.644H212.97L213.012 275.671C213.288 275.827 213.586 275.934 213.895 275.989C213.982 276.01 214.068 276.03 214.151 276.052C214.29 276.007 214.413 275.918 214.502 275.799C214.591 275.679 214.642 275.533 214.649 275.382C214.669 275.07 214.649 274.757 214.588 274.451C214.573 274.384 214.545 274.257 214.148 274.322C214.003 274.352 213.865 274.411 213.742 274.496L213.683 274.531C213.471 274.656 213.229 274.809 213.016 274.948L212.977 274.973H212.931C211.423 275.037 209.913 275.009 208.408 274.888H208.363L208.326 274.862C206.866 273.866 205.228 273.185 203.509 272.859C201.791 272.533 200.027 272.569 198.323 272.965L198.217 272.985L198.155 272.897C197.365 271.775 195.687 272.647 194.461 273.284C194.137 273.464 193.801 273.622 193.457 273.757L193.423 273.768H193.388C191.974 273.623 190.547 273.71 189.159 274.027C187.973 274.318 187.89 274.467 187.523 275.758C186.46 279.722 186.102 283.855 186.466 287.953C186.468 288.297 186.562 288.634 186.738 288.925C186.863 289.118 187.024 289.283 187.212 289.409C187.4 289.534 187.61 289.619 187.831 289.657C187.913 289.662 187.996 289.647 188.072 289.613C188.147 289.579 188.214 289.527 188.267 289.461C188.347 289.39 188.407 289.298 188.441 289.195C188.474 289.093 188.481 288.982 188.46 288.876C188.46 288.822 188.454 288.766 188.452 288.695C188.436 288.284 188.401 287.874 188.347 287.466C188.285 287.013 188.254 286.556 188.255 286.099C188.239 285.465 188.329 284.832 188.52 284.23C188.74 283.524 189.208 282.931 189.831 282.57C190.052 282.409 190.311 282.314 190.58 282.294C190.849 282.275 191.118 282.332 191.358 282.46C192.651 283.266 192.627 286.738 192.616 288.22V288.404C192.737 288.595 192.898 288.755 193.086 288.873C193.274 288.992 193.485 289.065 193.703 289.088C193.732 289.084 193.76 289.087 193.787 289.096C193.815 289.104 193.84 289.118 193.862 289.137C193.9 289.182 193.929 289.234 193.947 289.291C193.966 289.348 193.972 289.408 193.968 289.467C193.977 289.492 193.978 289.524 193.98 289.547V289.547Z" fill="#CCCCCC"/>
<path d="M200.57 286.435C200.655 287.543 200.639 288.656 200.521 289.761C200.516 289.917 200.47 290.068 200.388 290.2C200.305 290.332 200.189 290.44 200.051 290.514C199.162 291.169 196.182 291.326 195.811 289.934C195.674 289.929 195.783 289.479 195.653 289.496C195.392 289.475 195.14 289.393 194.917 289.257C194.694 289.122 194.506 288.936 194.369 288.716C194.374 287.193 194.543 281.702 191.801 283.18C191.205 283.51 190.758 284.052 190.551 284.697C190.366 285.26 190.28 285.85 190.294 286.442C190.273 287.2 190.464 288.029 190.491 288.939C190.502 289.345 190.567 289.448 190.262 289.794C189.771 290.352 188.914 289.881 188.451 289.269C188.255 288.96 188.147 288.605 188.14 288.24C187.771 284.263 188.134 280.253 189.21 276.405C189.602 275.099 189.739 274.91 190.989 274.617C192.411 274.307 193.873 274.221 195.322 274.363C196.447 274 199.115 272.034 200.266 273.594C202.013 273.209 203.82 273.175 205.58 273.494C207.341 273.814 209.019 274.479 210.515 275.452C212.032 275.566 213.553 275.593 215.072 275.534C215.286 275.398 215.537 275.252 215.755 275.127C215.915 275.019 216.095 274.944 216.285 274.905C216.531 274.867 216.852 274.856 216.927 275.16C216.992 275.472 217.014 275.79 216.992 276.108C216.984 276.299 216.913 276.483 216.788 276.629C216.663 276.775 216.493 276.876 216.304 276.915C215.877 276.845 215.463 276.712 215.076 276.52C213.685 276.558 212.829 276.482 211.438 276.52C211.661 276.758 211.652 276.915 211.814 277.229C212.214 278.273 212.348 279.399 212.203 280.506C212.058 281.613 211.64 282.668 210.985 283.576C210.887 285.158 211.007 286.756 211.018 288.343C211.024 288.89 211.062 289.41 210.543 289.773C210.086 290.045 209.571 290.21 209.039 290.254C208.508 290.298 207.973 290.221 207.476 290.028C207.205 289.873 206.963 289.674 206.761 289.437C206.583 289.457 206.404 289.46 206.226 289.448C205.923 289.364 205.661 289.173 205.489 288.912C205.39 288.733 205.306 288.547 205.237 288.355C205.237 287.612 205.21 287.321 205.21 286.579C203.667 286.853 202.084 286.808 200.56 286.449L200.57 286.435Z" fill="#373435"/>
<path d="M195.064 290.997C194.627 291.004 194.192 290.935 193.777 290.795C193.546 290.73 193.333 290.611 193.155 290.446C192.977 290.281 192.838 290.075 192.749 289.845C192.672 289.745 192.634 289.618 192.643 289.491V289.441C192.375 289.399 192.117 289.298 191.889 289.144C191.661 288.99 191.468 288.788 191.321 288.549L191.296 288.506V288.221C191.306 286.921 191.33 283.467 190.203 282.764C190.013 282.668 189.802 282.628 189.591 282.647C189.381 282.667 189.18 282.745 189.01 282.874C188.454 283.196 188.038 283.727 187.846 284.358C187.672 284.921 187.591 285.512 187.605 286.104C187.605 286.545 187.635 286.986 187.695 287.423C187.741 287.827 187.787 288.244 187.801 288.683C187.801 288.748 187.801 288.804 187.808 288.855C187.832 289.007 187.82 289.163 187.772 289.309C187.724 289.455 187.642 289.586 187.533 289.691C187.447 289.796 187.339 289.88 187.217 289.935C187.095 289.99 186.963 290.015 186.83 290.007C186.559 289.968 186.299 289.871 186.067 289.721C185.834 289.571 185.634 289.372 185.481 289.137C185.264 288.792 185.146 288.39 185.14 287.979C184.771 283.838 185.132 279.661 186.206 275.655C186.603 274.275 186.777 274.006 188.087 273.684C189.499 273.361 190.951 273.269 192.39 273.412C192.706 273.284 193.015 273.137 193.315 272.972C194.618 272.295 196.392 271.373 197.366 272.605C199.093 272.218 200.876 272.19 202.612 272.524C204.349 272.858 206.005 273.547 207.484 274.55C208.946 274.665 210.414 274.692 211.879 274.631C212.085 274.498 212.316 274.354 212.52 274.232L212.579 274.197C212.738 274.089 212.915 274.014 213.101 273.977C213.571 273.901 213.842 274.035 213.923 274.374C213.991 274.714 214.014 275.061 213.992 275.407C213.981 275.647 213.893 275.876 213.741 276.058C213.589 276.239 213.383 276.362 213.155 276.406H213.128L213.101 276.399C213.01 276.374 212.918 276.352 212.826 276.33C212.499 276.27 212.182 276.159 211.886 276C211.217 276.018 210.665 276.008 210.132 276C209.674 275.993 209.203 275.984 208.658 275.993C208.691 276.062 208.716 276.129 208.742 276.197C208.777 276.293 208.816 276.387 208.861 276.479C209.271 277.584 209.412 278.777 209.272 279.952C209.131 281.127 208.714 282.248 208.056 283.215C207.997 284.277 208.027 285.367 208.056 286.42C208.071 286.961 208.087 287.52 208.091 288.07V288.164C208.142 288.447 208.118 288.738 208.023 289.008C207.928 289.278 207.764 289.515 207.549 289.696C207.074 289.997 206.539 290.179 205.984 290.228C205.43 290.277 204.873 290.192 204.356 289.979C204.128 289.862 203.925 289.698 203.759 289.498C203.722 289.459 203.685 289.419 203.647 289.382C203.595 289.382 203.541 289.388 203.494 289.394C203.378 289.413 203.26 289.411 203.145 289.387C202.805 289.289 202.51 289.066 202.317 288.759C202.242 288.635 202.181 288.501 202.136 288.362C202.111 288.293 202.084 288.224 202.055 288.156L202.041 288.122V288.084C202.041 287.703 202.034 287.431 202.027 287.169C202.022 286.949 202.015 286.729 202.014 286.445C200.61 286.685 199.176 286.65 197.784 286.344C197.845 287.417 197.819 288.494 197.708 289.563C197.7 289.747 197.647 289.925 197.555 290.081C197.462 290.238 197.333 290.367 197.179 290.457C196.536 290.839 195.804 291.026 195.064 290.997V290.997ZM192.982 289.548H193.02L193.052 289.673C193.116 289.867 193.226 290.042 193.372 290.18C193.518 290.318 193.696 290.415 193.888 290.463C194.915 290.788 196.023 290.686 196.978 290.178C197.096 290.116 197.195 290.021 197.264 289.905C197.334 289.789 197.372 289.655 197.375 289.518C197.485 288.431 197.505 287.336 197.433 286.246L197.343 286.219L197.708 285.462L197.751 285.971C199.2 286.304 200.699 286.337 202.16 286.068L202.352 286.041V286.241C202.352 286.623 202.358 286.894 202.365 287.156C202.373 287.418 202.378 287.676 202.379 288.044C202.405 288.108 202.429 288.171 202.452 288.233C202.489 288.348 202.539 288.458 202.599 288.563C202.747 288.798 202.973 288.97 203.234 289.046C203.309 289.058 203.386 289.058 203.462 289.046C203.548 289.036 203.634 289.031 203.72 289.032H203.783L203.83 289.077C203.887 289.132 203.944 289.187 204.001 289.253C204.137 289.419 204.302 289.555 204.488 289.656C204.952 289.844 205.452 289.92 205.949 289.877C206.446 289.834 206.927 289.674 207.356 289.409C207.766 289.108 207.761 288.694 207.754 288.17V288.074C207.754 287.524 207.735 286.975 207.72 286.433C207.689 285.347 207.657 284.226 207.72 283.125V283.052L207.772 283.004C208.396 282.092 208.793 281.035 208.93 279.925C209.066 278.815 208.937 277.688 208.554 276.643C208.504 276.54 208.459 276.435 208.421 276.327C208.378 276.186 208.306 276.056 208.209 275.947L207.954 275.662L208.328 275.651C209.019 275.631 209.584 275.641 210.132 275.651C210.68 275.661 211.237 275.671 211.92 275.651H211.97L212.012 275.678C212.288 275.834 212.586 275.941 212.895 275.996C212.982 276.017 213.068 276.037 213.151 276.059C213.29 276.014 213.413 275.925 213.502 275.806C213.591 275.686 213.642 275.54 213.649 275.389C213.669 275.077 213.649 274.764 213.588 274.458C213.573 274.391 213.544 274.265 213.148 274.329C213.003 274.359 212.865 274.418 212.742 274.503L212.682 274.538C212.47 274.664 212.226 274.817 212.014 274.955L211.985 274.977H211.939C210.431 275.041 208.92 275.013 207.415 274.892H207.371L207.331 274.863C205.871 273.867 204.232 273.186 202.514 272.861C200.795 272.535 199.031 272.571 197.326 272.967L197.22 272.986L197.158 272.898C196.368 271.777 194.69 272.649 193.464 273.286C193.14 273.466 192.804 273.624 192.459 273.758L192.426 273.769H192.391C190.976 273.624 189.549 273.712 188.16 274.029C186.975 274.319 186.891 274.469 186.524 275.76C185.461 279.724 185.103 283.856 185.467 287.954C185.469 288.299 185.564 288.635 185.74 288.927C185.864 289.12 186.025 289.284 186.213 289.41C186.401 289.536 186.612 289.621 186.832 289.659C186.915 289.664 186.997 289.65 187.073 289.615C187.149 289.581 187.216 289.529 187.269 289.462C187.349 289.391 187.408 289.3 187.442 289.197C187.476 289.094 187.483 288.984 187.461 288.877C187.461 288.823 187.455 288.767 187.454 288.697C187.438 288.285 187.403 287.875 187.348 287.467C187.286 287.015 187.256 286.558 187.256 286.1C187.241 285.466 187.331 284.834 187.522 284.231C187.742 283.526 188.21 282.933 188.833 282.572C189.054 282.411 189.313 282.315 189.582 282.296C189.851 282.276 190.12 282.334 190.36 282.462C191.653 283.268 191.629 286.739 191.619 288.222V288.405C191.741 288.597 191.903 288.757 192.093 288.875C192.283 288.992 192.496 289.064 192.716 289.085C192.745 289.082 192.773 289.084 192.8 289.093C192.828 289.101 192.853 289.115 192.875 289.134C192.913 289.179 192.942 289.231 192.961 289.288C192.979 289.345 192.986 289.405 192.981 289.464C192.979 289.492 192.979 289.52 192.982 289.548V289.548Z" fill="#29F48F"/>
<path d="M203.067 286.137C203.337 286.115 203.603 286.069 203.862 286C203.992 286.66 204.03 287.331 203.977 287.998C203.781 288.009 203.585 287.969 203.416 287.883C203.246 287.797 203.11 287.67 203.024 287.516C202.981 287.057 202.995 286.594 203.067 286.137V286.137Z" fill="#6978AB"/>
<path d="M203.853 288.999C203.682 289.01 203.514 288.925 203.368 288.755C203.221 288.584 203.104 288.335 203.029 288.037L203.019 288.001V287.96C202.985 287.133 202.996 286.301 203.054 285.479L203.065 285.32L203.147 285.302C203.353 285.263 203.556 285.185 203.754 285.068L203.862 285L203.889 285.216C203.989 286.267 204.021 287.339 203.986 288.406L203.981 288.995H203.879L203.853 288.999ZM203.227 287.882C203.279 288.08 203.356 288.248 203.452 288.371C203.547 288.493 203.657 288.566 203.772 288.582V288.397C203.8 287.437 203.778 286.474 203.705 285.523C203.556 285.598 203.405 285.654 203.252 285.69C203.206 286.419 203.197 287.155 203.226 287.887L203.227 287.882Z" fill="#373435"/>
<path d="M187.635 288.578C187.396 287.049 187.152 284.35 188.273 283.064C188.361 282.947 188.457 282.836 188.56 282.731C190.328 281.106 191.868 282.504 192.286 284.303C192.374 285.44 192.392 286.581 192.34 287.721C192.444 287.919 192.606 288.083 192.804 288.194C193.002 288.304 193.229 288.356 193.457 288.343C193.62 288.671 193.576 288.915 193.761 289.132C194.112 289.516 194.573 289.79 195.084 289.918C195.595 290.047 196.134 290.023 196.632 289.852C196.965 289.714 197.289 289.557 197.602 289.381C197.856 287.989 197.82 286.562 197.496 285.184C197.496 284.993 197.431 284.867 197.431 284.676C197.553 284.693 197.667 284.743 197.762 284.819C197.549 285.581 200.479 286.105 203.897 285.184C203.935 285.052 203.869 284.888 203.951 284.84C204.004 284.808 204.063 284.787 204.125 284.78C204.187 284.772 204.25 284.778 204.309 284.797C204.325 285.041 204.331 285.279 204.348 285.524C204.613 285.548 204.879 285.551 205.145 285.534C204.971 285.687 204.741 285.767 204.507 285.756C204.567 285.756 204.474 285.867 204.528 285.877C204.686 285.915 204.984 285.857 205.109 285.91C204.876 286.042 204.615 285.968 204.458 286.117C204.496 286.926 204.518 287.794 204.551 288.607C205.063 288.987 205.696 289.179 206.339 289.151C206.982 289.123 207.595 288.876 208.071 288.453C208.172 286.828 208.137 285.197 207.964 283.577C207.84 283.562 207.714 283.54 207.59 283.525C209.532 280.975 209.906 278.365 208.279 276.011C208.263 275.907 208.192 275.803 208.173 275.699C209.589 275.646 211.043 275.79 212.463 275.737C212.847 275.878 213.242 275.986 213.645 276.059C214.063 275.916 214.139 274.784 213.727 274.911C213.316 275.037 213.089 275.292 212.648 275.45C211.021 275.45 209.214 275.387 207.588 275.387C206.26 274.356 204.687 273.668 203.015 273.387C201.343 273.106 199.625 273.24 198.02 273.778C198.514 274.817 198.793 275.941 198.841 277.085C198.888 278.229 198.703 279.371 198.297 280.445C198.204 280.742 196.8 281.609 197.949 280.662C199.11 279.7 198.383 273.011 196.956 273C195.277 273.017 193.666 273.646 192.438 274.764C192.216 274.531 192.232 274.626 192.332 274.298C191.117 274.196 189.894 274.301 188.717 274.609C188.412 274.619 188.117 274.718 187.87 274.893C187.624 275.069 187.437 275.313 187.335 275.594C186.262 279.335 185.831 283.224 186.059 287.103C186.115 287.568 186.241 288.022 186.434 288.451C187.071 289.134 187.416 288.938 187.627 288.578H187.635Z" fill="url(#paint0_linear)"/>
<path d="M189.957 275.433C189.427 275.066 188.852 274.929 188.284 275.034C188.232 275.025 188.179 275.046 188.135 275.095C188.091 275.144 188.059 275.217 188.043 275.302C188.022 275.363 188.008 275.432 188.003 275.502C187.997 275.573 188 275.645 188.011 275.714C188.06 275.946 188.068 275.933 188.188 275.981C188.346 276.021 188.508 275.997 188.66 275.912C188.84 275.751 189.038 275.659 189.241 275.642C189.444 275.625 189.646 275.685 189.834 275.815C190.01 275.802 190.028 275.679 189.971 275.444L189.957 275.433Z" fill="#373435"/>
<path d="M188.458 276C188.408 276 188.358 275.994 188.309 275.983H188.293C188.226 275.975 188.164 275.942 188.114 275.89C188.065 275.838 188.032 275.768 188.019 275.692C188.002 275.624 187.996 275.552 188.003 275.482C188.009 275.411 188.028 275.342 188.059 275.28C188.088 275.2 188.138 275.132 188.201 275.085C188.265 275.038 188.34 275.015 188.415 275.019C188.886 274.961 189.361 275.036 189.801 275.235H189.905L189.956 275.38C189.985 275.435 190 275.498 190 275.562C190 275.626 189.984 275.689 189.954 275.743C189.924 275.797 189.882 275.841 189.832 275.869C189.782 275.897 189.726 275.908 189.67 275.901H189.64L189.606 275.89C189.482 275.828 189.347 275.799 189.212 275.804C189.077 275.81 188.945 275.85 188.825 275.922L188.802 275.938L188.777 275.945C188.673 275.979 188.566 275.998 188.458 276V276ZM188.403 275.531C188.487 275.541 188.573 275.531 188.655 275.502L188.723 275.463C188.634 275.463 188.545 275.463 188.454 275.479H188.421L188.414 275.496C188.408 275.507 188.405 275.519 188.403 275.531V275.531Z" fill="#373435"/>
<path d="M189.233 276.654C189.266 276.532 189.318 276.43 189.382 276.359C189.446 276.289 189.521 276.253 189.596 276.256C189.611 276.092 189.596 276 189.479 276C189.312 276.151 189.17 276.376 189.065 276.652C189.005 276.893 188.986 277.16 189.01 277.42C189.023 277.598 189.075 277.759 189.153 277.87C189.235 277.961 189.33 278.006 189.426 277.999C189.522 277.992 189.614 277.933 189.691 277.831C189.948 277.563 190.204 276.8 189.754 276.512C189.663 276.48 189.571 276.481 189.481 276.515C189.391 276.549 189.305 276.614 189.23 276.707C189.223 276.714 189.219 276.688 189.23 276.655L189.233 276.654Z" fill="#373435"/>
<path d="M188.793 278C188.62 278.003 188.451 277.95 188.318 277.85C188.153 277.729 188.046 277.556 188.019 277.365C187.972 277.113 188.013 276.854 188.136 276.625C188.322 276.371 188.577 276.164 188.876 276.024L188.917 276.002H188.961C189.018 275.997 189.076 276.003 189.13 276.02C189.184 276.038 189.234 276.066 189.275 276.102C189.31 276.146 189.334 276.195 189.346 276.248C189.358 276.301 189.357 276.356 189.342 276.408C189.501 276.43 189.648 276.494 189.766 276.593C189.883 276.692 189.965 276.82 190 276.962C189.993 277.141 189.935 277.316 189.831 277.469C189.727 277.621 189.581 277.747 189.408 277.833C189.223 277.936 189.011 277.994 188.793 278V278ZM188.417 276.872C188.374 277.021 188.364 277.177 188.389 277.329C188.405 277.433 188.466 277.528 188.558 277.592C188.783 277.762 189.148 277.58 189.219 277.542C189.331 277.487 189.427 277.409 189.498 277.314C189.57 277.218 189.615 277.109 189.629 276.994C189.619 276.888 189.526 276.812 189.353 276.756C189.11 276.723 188.863 276.775 188.662 276.902L188.646 276.909L188.522 276.966L188.419 276.872H188.417Z" fill="#373435"/>
<path d="M189.452 277.787C189.455 277.828 189.465 277.869 189.481 277.908C189.488 277.926 189.497 277.943 189.51 277.96C189.47 277.981 189.424 277.995 189.376 277.999C189.329 278.003 189.281 277.997 189.236 277.982C188.934 277.869 188.956 277.519 189.111 277.33C189.191 277.232 189.299 277.151 189.425 277.094C189.55 277.037 189.69 277.004 189.833 277C189.995 277.069 190.044 277.133 189.959 277.15C189.911 277.158 189.865 277.171 189.822 277.191C189.79 277.203 189.761 277.22 189.737 277.242C189.714 277.264 189.696 277.29 189.686 277.318C189.755 277.335 189.791 277.318 189.854 277.341V277.52C189.787 277.493 189.71 277.485 189.637 277.498C189.5 277.533 189.447 277.694 189.447 277.792L189.452 277.787Z" fill="#FEFEFE"/>
<path d="M190 281.593C190.25 281.528 190.487 281.404 190.698 281.228C190.908 281.052 191.087 280.828 191.225 280.568C191.363 280.307 191.456 280.017 191.5 279.713C191.544 279.409 191.538 279.097 191.481 278.796C191.323 278.792 191.168 278.742 191.03 278.649C191.021 278.579 191.017 278.507 191.007 278.436C191.373 278.649 191.89 278.713 191.823 278.038C191.873 278.022 191.95 278.017 192 278C191.982 278.473 191.912 278.517 191.67 278.718C191.74 279.234 191.704 279.762 191.565 280.257C191.427 280.753 191.19 281.199 190.875 281.559C190.857 281.707 190.868 281.858 190.907 282C190.792 281.854 190.65 281.743 190.493 281.674C190.335 281.605 190.167 281.58 190.001 281.603L190 281.593Z" fill="#373435"/>
<path d="M190.7 283L190.237 282.511C190.102 282.378 189.937 282.277 189.756 282.216C189.574 282.154 189.379 282.134 189.188 282.156H189V281.846L189.131 281.796C189.727 281.679 190.252 281.345 190.594 280.864C190.937 280.382 191.07 279.793 190.965 279.219C190.777 279.206 190.595 279.15 190.435 279.056L190.363 279.013L190.35 278.935L190.334 278.818L190.32 278.714L190.267 278.382L190.583 278.528C190.689 278.593 190.809 278.635 190.934 278.651C191.059 278.666 191.187 278.654 191.306 278.617C191.381 278.567 191.408 278.458 191.389 278.295L191.371 278.144L191.524 278.104C191.569 278.093 191.616 278.085 191.662 278.08C191.693 278.076 191.724 278.071 191.755 278.064L192 278L191.988 278.243C191.964 278.748 191.848 278.875 191.57 279.064C191.643 279.603 191.584 280.15 191.398 280.662C191.212 281.175 190.905 281.64 190.499 282.02C190.5 282.114 190.513 282.208 190.54 282.299L190.7 283ZM189.889 281.884C189.973 281.909 190.055 281.943 190.132 281.983C190.136 281.946 190.144 281.909 190.157 281.873L190.169 281.837L190.196 281.81C190.295 281.708 190.386 281.607 190.47 281.505C190.293 281.652 190.098 281.779 189.889 281.884Z" fill="#373435"/>
<path d="M207 288.941C206.969 288.543 206.912 288.193 206.899 287.794C206.868 286.879 206.055 286.68 206.011 287.594C205.986 288.074 206.011 288.526 206.011 288.978C206.341 289.017 206.676 289.004 207 288.941V288.941Z" fill="#29F48F"/>
<path d="M206.487 289C206.377 289 206.274 288.994 206.169 288.988L206.004 288.98V288.93V288.504C206.004 288.217 205.994 287.921 206.004 287.615C206.025 287.161 206.224 287 206.402 287C206.636 287 206.893 287.284 206.911 287.802C206.917 288.033 206.939 288.244 206.961 288.468C206.976 288.604 206.989 288.742 207 288.887V288.93L206.955 288.942C206.803 288.981 206.645 289.001 206.487 289V289ZM206.125 288.88H206.178C206.414 288.905 206.653 288.895 206.886 288.851C206.876 288.722 206.862 288.599 206.85 288.478C206.827 288.252 206.806 288.04 206.799 287.805C206.784 287.373 206.579 287.103 206.406 287.103C206.287 287.103 206.143 287.237 206.125 287.616C206.11 287.917 206.116 288.217 206.125 288.499C206.123 288.627 206.125 288.752 206.125 288.88Z" fill="#373435"/>
<path d="M206 289C205.913 288.62 205.881 288.235 205.903 287.85C205.97 287.152 205.069 286.416 205.009 287.713C204.987 288.091 205.007 288.471 205.069 288.847C205.374 288.916 205.685 288.967 206 289V289Z" fill="#29F48F"/>
<path d="M206 289L205.927 288.991C205.646 288.96 205.367 288.911 205.095 288.846L205.062 288.836V288.809C205.006 288.448 204.988 288.084 205.008 287.721C205.025 287.323 205.113 287.087 205.285 287.019C205.324 287.004 205.368 286.998 205.412 287.001C205.455 287.004 205.497 287.017 205.531 287.038C205.669 287.143 205.775 287.271 205.841 287.413C205.907 287.555 205.931 287.706 205.912 287.856C205.888 288.177 205.907 288.499 205.969 288.816L206 289ZM205.164 288.77C205.395 288.824 205.632 288.866 205.87 288.895L205.86 288.826C205.795 288.503 205.773 288.177 205.794 287.851C205.811 287.716 205.791 287.58 205.734 287.452C205.677 287.325 205.585 287.208 205.464 287.112C205.446 287.1 205.424 287.092 205.4 287.09C205.377 287.087 205.353 287.09 205.331 287.097C205.273 287.121 205.136 287.229 205.114 287.724C205.095 288.073 205.112 288.423 205.164 288.77V288.77Z" fill="#373435"/>
<path d="M205 289L204.859 287.043C204.758 285.582 204.088 285.752 204.034 286.955C204.008 287.524 204.06 287.835 204 288.405C204.315 288.592 204.644 288.962 205 288.992V289Z" fill="#29F48F"/>
<path d="M204.942 289C204.693 288.942 204.469 288.814 204.297 288.633C204.213 288.558 204.123 288.489 204.03 288.424L204 288.404V288.37C204.024 288.105 204.032 287.838 204.024 287.572V286.977C204.049 286.386 204.213 286.002 204.441 286C204.674 286 204.834 286.396 204.876 287.06L205 288.946H204.937L204.942 289ZM204.129 288.347C204.213 288.404 204.296 288.475 204.379 288.544C204.521 288.684 204.692 288.795 204.88 288.869L204.764 287.068C204.72 286.37 204.554 286.119 204.453 286.119C204.348 286.119 204.182 286.395 204.159 286.983C204.149 287.204 204.152 287.394 204.159 287.572C204.164 287.83 204.154 288.088 204.129 288.345V288.347Z" fill="#373435"/>
<path d="M195.995 289.984C196.011 289.585 195.987 289.186 195.925 288.791C195.677 287.869 195.365 287.756 195 288.437V289.968C195.33 290.007 195.665 290.01 195.996 289.978L195.995 289.984Z" fill="#29F48F"/>
<path d="M195.614 290C195.443 290 195.272 289.986 195.103 289.972L195 289.963V288.444C195.158 288.131 195.31 287.986 195.463 288.001C195.65 288.019 195.799 288.269 195.93 288.788L195.94 288.871C195.991 289.223 196.01 289.578 195.995 289.933H195.942L195.949 289.976C195.838 289.992 195.726 290 195.614 290V290ZM195.113 289.871C195.372 289.901 195.634 289.906 195.894 289.883C195.904 289.549 195.886 289.215 195.838 288.883L195.829 288.806C195.678 288.211 195.532 288.109 195.458 288.103C195.402 288.103 195.285 288.14 195.113 288.478V289.871Z" fill="#373435"/>
<path d="M194.009 289.851C194.016 289.346 194.024 289.011 194.024 288.506C194.342 287.763 194.667 287.838 194.985 288.73C194.993 289.21 195 289.522 195 290C194.652 289.992 194.311 289.941 194 289.851H194.009Z" fill="#29F48F"/>
<path d="M195 290L194.903 289.988C194.654 289.974 194.41 289.9 194.189 289.77L194 289.647H194.166V289.278C194.166 288.774 194.173 288.357 194.173 287.788V287.772C194.29 287.239 194.404 287 194.545 287C194.653 287 194.805 287.129 194.976 288.095V288.52C194.976 288.994 194.984 289.381 194.984 289.921L195 290ZM194.281 289.678C194.471 289.78 194.676 289.839 194.886 289.852C194.886 289.353 194.886 288.978 194.878 288.526V288.114C194.709 287.188 194.58 287.138 194.555 287.138C194.53 287.138 194.437 287.153 194.295 287.802C194.295 288.367 194.295 288.786 194.288 289.285L194.281 289.678Z" fill="#373435"/>
<path d="M192.557 289C192.399 288.992 192.246 288.951 192.108 288.879L192 288.834V288.791C192.007 288.413 192.012 288.033 192.017 287.653C192.021 287.272 192.027 286.893 192.034 286.513V286.493C192.162 286.146 192.299 285.991 192.454 286C192.608 286.01 192.787 286.146 193 287.117V287.134C192.981 287.432 192.937 287.737 192.894 288.028C192.852 288.319 192.809 288.619 192.79 288.911V288.966L192.736 288.977C192.677 288.99 192.617 288.998 192.557 289V289ZM192.139 288.759L192.165 288.77C192.314 288.853 192.489 288.888 192.661 288.869C192.682 288.585 192.723 288.297 192.764 288.018C192.805 287.74 192.848 287.432 192.869 287.141C192.666 286.221 192.496 286.139 192.448 286.136C192.423 286.136 192.32 286.156 192.171 286.534C192.165 286.908 192.159 287.284 192.155 287.661C192.15 288.038 192.145 288.401 192.139 288.749V288.759Z" fill="#373435"/>
<path d="M203.004 288.839C203.059 288.04 202.983 287.375 203.004 286.594C203.024 285.647 203.848 285.921 203.883 286.79C203.918 287.659 203.958 288.105 204 288.972C203.666 289.036 203.323 288.99 203.012 288.839H203.004Z" fill="#29F48F"/>
<path d="M203.589 288.999C203.404 289.007 203.221 288.957 203.056 288.853H203.003V288.77C203.025 288.365 203.027 287.958 203.011 287.552C203.003 287.261 202.995 286.959 203.003 286.64C203.013 286.171 203.201 286.001 203.374 286C203.611 286 203.879 286.313 203.897 286.825C203.915 287.246 203.933 287.554 203.949 287.876C203.966 288.198 203.982 288.492 204 288.896V288.974L203.817 288.983C203.741 288.994 203.665 289 203.589 288.999ZM203.131 288.731C203.348 288.841 203.585 288.878 203.817 288.836H203.873C203.859 288.521 203.843 288.206 203.826 287.892C203.809 287.575 203.793 287.261 203.774 286.838C203.755 286.415 203.557 286.16 203.376 286.16C203.228 286.16 203.14 286.345 203.13 286.65C203.121 286.955 203.13 287.264 203.137 287.554C203.152 287.946 203.15 288.339 203.131 288.731V288.731Z" fill="#373435"/>
<path d="M198.064 281.324C198.361 279.79 198.653 278.255 198.951 276.714C198.998 276.354 199.085 276.032 199.435 276H199.86C200.117 276 200.263 276.165 200.286 276.495L200.199 277.177C200.211 277.455 200.369 277.613 200.683 277.639C201.109 277.657 201.541 277.683 201.967 277.702C202.609 277.746 203.04 278.043 202.997 278.908L202.594 281.194C202.587 281.371 202.532 281.541 202.435 281.684C202.339 281.827 202.205 281.935 202.052 281.996C201.86 281.984 201.643 282.009 201.451 281.996C201.118 282.015 200.926 281.883 201.048 281.409C201.171 280.808 201.323 280.057 201.451 279.457C201.498 278.743 201.253 278.706 200.993 278.655C200.771 278.623 200.556 278.655 200.334 278.623C200.007 278.673 199.884 279.014 199.792 279.394C199.652 280.031 199.506 280.67 199.366 281.313C199.302 281.661 199.232 281.888 198.993 281.995H198.281C198.013 281.932 197.937 281.704 198.052 281.313L198.064 281.324Z" fill="#373435"/>
<path d="M201.518 281.985H201.399C201.317 282 201.233 281.993 201.154 281.964C201.075 281.936 201.004 281.887 200.947 281.822C200.898 281.739 200.869 281.645 200.862 281.547C200.854 281.45 200.869 281.351 200.904 281.261L200.971 280.931C201.072 280.431 201.188 279.872 201.284 279.406C201.318 278.855 201.182 278.827 200.957 278.782C200.755 278.753 200.56 278.782 200.342 278.754C200.124 278.797 200.025 279.033 199.935 279.397L199.754 280.214L199.53 281.234C199.456 281.575 199.396 281.843 199.106 281.975L199.084 281.985H198.359C198.297 281.974 198.238 281.948 198.186 281.91C198.134 281.873 198.091 281.823 198.058 281.765C198.02 281.672 198 281.571 198 281.469C198 281.367 198.02 281.266 198.058 281.172L198.094 281.054L198.53 278.754L198.906 276.784C198.936 276.547 199 276.043 199.471 276H199.886C200.065 276 200.371 276.076 200.407 276.593V276.606L200.323 277.261C200.331 277.395 200.382 277.548 200.676 277.571L201.288 277.601L201.895 277.631C202.05 277.615 202.206 277.638 202.352 277.699C202.497 277.76 202.627 277.857 202.733 277.981C202.838 278.106 202.916 278.256 202.96 278.419C203.003 278.581 203.012 278.753 202.984 278.92V278.937L202.601 281.128C202.59 281.319 202.528 281.503 202.423 281.656C202.318 281.809 202.174 281.926 202.009 281.992L201.987 282H201.688C201.632 281.982 201.574 281.985 201.518 281.985V281.985ZM201.4 281.728H201.955C202.075 281.674 202.179 281.582 202.254 281.465C202.328 281.348 202.37 281.21 202.374 281.068L202.757 278.881C202.79 278.214 202.53 277.911 201.885 277.867L201.279 277.837L200.665 277.806C200.186 277.767 200.101 277.437 200.093 277.244V277.229L200.176 276.578C200.151 276.274 200.008 276.235 199.887 276.235H199.482C199.281 276.254 199.188 276.404 199.135 276.81L198.757 278.788C198.602 279.605 198.446 280.421 198.289 281.236L198.245 281.465L198.232 281.451C198.224 281.512 198.233 281.574 198.257 281.63C198.273 281.655 198.293 281.677 198.317 281.694C198.34 281.71 198.367 281.721 198.394 281.726H199.034C199.19 281.645 199.243 281.489 199.3 281.173L199.526 280.147L199.706 279.328C199.773 279.058 199.894 278.559 200.32 278.498H200.352C200.55 278.526 200.757 278.498 200.979 278.529H200.994C201.306 278.59 201.56 278.701 201.513 279.429V279.449C201.414 279.916 201.295 280.478 201.198 280.981L201.13 281.318C201.086 281.488 201.086 281.604 201.13 281.661C201.173 281.718 201.301 281.733 201.394 281.728H201.4Z" fill="#FEFEFE"/>
<path d="M193.035 282.634C193.295 281.245 193.56 279.856 193.821 278.472C193.817 278.41 193.827 278.347 193.849 278.288C193.87 278.229 193.904 278.176 193.947 278.131C193.99 278.087 194.042 278.052 194.099 278.029C194.156 278.007 194.217 277.997 194.278 278.001H196.671C196.898 277.994 197.124 278.051 197.323 278.166C197.521 278.282 197.686 278.451 197.798 278.655C197.959 278.954 198.026 279.297 197.991 279.637C197.94 280.22 197.689 280.766 197.284 281.176C196.952 281.465 196.545 281.647 196.114 281.701C195.707 281.712 195.299 281.717 194.891 281.729C194.657 281.708 194.424 281.772 194.367 281.965C194.294 282.228 194.242 282.49 194.169 282.748C194.144 282.806 194.106 282.857 194.06 282.899C194.013 282.941 193.958 282.972 193.899 282.989C193.665 282.995 193.426 282.995 193.192 283C192.941 283.004 192.993 282.851 193.035 282.634V282.634ZM194.704 280.253C194.771 279.889 194.855 279.476 194.917 279.154C194.95 279.058 195.013 278.975 195.095 278.919C195.177 278.862 195.275 278.834 195.374 278.839C195.621 278.821 195.869 278.854 196.103 278.936C196.206 278.978 196.298 279.043 196.375 279.126C196.451 279.208 196.51 279.306 196.547 279.414C196.583 279.521 196.598 279.635 196.589 279.749C196.579 279.863 196.547 279.973 196.493 280.073C196.403 280.248 196.279 280.403 196.13 280.53C195.981 280.656 195.81 280.751 195.625 280.808C195.456 280.854 195.28 280.872 195.105 280.862C194.658 280.813 194.621 280.69 194.698 280.25L194.704 280.253Z" fill="#373435"/>
<path d="M193.331 282.997C193.281 283.001 193.23 282.996 193.183 282.981C193.136 282.966 193.094 282.942 193.059 282.912C192.97 282.82 193 282.696 193.032 282.566L193.042 282.52C193.207 281.789 193.373 281.057 193.541 280.325L193.943 278.554C193.938 278.484 193.95 278.415 193.977 278.35C194.005 278.284 194.049 278.225 194.105 278.175C194.168 278.117 194.246 278.072 194.331 278.042C194.416 278.012 194.508 277.998 194.601 278.001H197.348C197.633 277.993 197.915 278.053 198.163 278.174C198.411 278.295 198.616 278.471 198.755 278.685C198.949 278.989 199.031 279.336 198.989 279.68C198.928 280.264 198.627 280.81 198.14 281.221L198.126 281.232C197.727 281.52 197.238 281.702 196.719 281.755C196.478 281.761 196.242 281.764 196.008 281.769L195.304 281.782H195.29C195.101 281.767 194.863 281.798 194.821 281.932C194.779 282.067 194.745 282.178 194.704 282.301C194.663 282.425 194.631 282.553 194.587 282.68C194.553 282.752 194.502 282.816 194.436 282.869C194.37 282.921 194.29 282.96 194.204 282.982L194.182 282.99H194.159L193.754 282.995L193.345 283L193.331 282.997ZM193.252 282.776C193.281 282.782 193.311 282.785 193.341 282.783L193.754 282.778H194.132C194.258 282.73 194.331 282.677 194.351 282.623C194.392 282.499 194.427 282.377 194.468 282.253C194.509 282.129 194.541 282.002 194.585 281.875C194.662 281.66 194.937 281.544 195.314 281.573L196.01 281.56L196.714 281.547C197.18 281.496 197.62 281.331 197.98 281.071C198.422 280.697 198.695 280.201 198.753 279.671C198.791 279.365 198.718 279.057 198.544 278.788C198.422 278.61 198.247 278.464 198.037 278.364C197.827 278.265 197.59 278.215 197.35 278.221H194.595C194.537 278.219 194.48 278.227 194.427 278.246C194.374 278.264 194.326 278.293 194.286 278.328C194.252 278.358 194.226 278.394 194.21 278.433C194.194 278.472 194.188 278.514 194.193 278.556V278.586L193.787 280.372L193.289 282.568L193.277 282.615C193.259 282.669 193.251 282.726 193.253 282.782L193.252 282.776ZM195.658 280.954H195.534C195.435 280.956 195.337 280.941 195.244 280.911C195.152 280.88 195.068 280.833 194.997 280.774C194.893 280.655 194.902 280.496 194.956 280.243L194.998 280.042L195.006 280.049C195.047 279.869 195.092 279.685 195.133 279.511L195.219 279.166C195.267 279.054 195.356 278.959 195.473 278.894C195.589 278.828 195.727 278.797 195.866 278.804C196.162 278.787 196.459 278.821 196.739 278.904C196.863 278.942 196.976 279.002 197.072 279.08C197.167 279.158 197.242 279.252 197.293 279.356C197.348 279.481 197.374 279.615 197.368 279.749C197.362 279.883 197.324 280.015 197.258 280.136L197.249 280.149C197.137 280.328 196.986 280.486 196.802 280.615C196.619 280.743 196.408 280.839 196.181 280.898C196.009 280.933 195.834 280.952 195.657 280.954H195.658ZM195.174 280.439C195.156 280.507 195.164 280.578 195.199 280.641C195.24 280.687 195.355 280.717 195.56 280.736C195.748 280.744 195.936 280.727 196.118 280.687C196.313 280.636 196.494 280.552 196.651 280.441C196.808 280.329 196.938 280.193 197.034 280.038C197.085 279.945 197.114 279.843 197.119 279.739C197.124 279.636 197.105 279.532 197.063 279.435C197.025 279.358 196.969 279.289 196.898 279.232C196.827 279.175 196.743 279.13 196.651 279.102C196.397 279.029 196.129 279 195.861 279.017C195.772 279.011 195.684 279.03 195.609 279.072C195.535 279.114 195.479 279.176 195.451 279.248L195.379 279.55C195.323 279.787 195.262 280.045 195.209 280.283L195.174 280.439Z" fill="#FEFEFE"/>
<path d="M203.037 282.634C203.296 281.245 203.561 279.856 203.822 278.472C203.819 278.41 203.828 278.347 203.85 278.288C203.872 278.229 203.905 278.176 203.948 278.131C203.992 278.087 204.043 278.052 204.1 278.029C204.157 278.007 204.218 277.997 204.279 278.001H206.671C206.899 277.994 207.124 278.051 207.323 278.166C207.522 278.282 207.686 278.451 207.799 278.655C207.959 278.954 208.026 279.297 207.991 279.637C207.94 280.22 207.689 280.766 207.284 281.176C206.952 281.465 206.546 281.647 206.115 281.701C205.707 281.712 205.3 281.717 204.893 281.729C204.658 281.708 204.425 281.772 204.368 281.965C204.296 282.228 204.244 282.49 204.17 282.748C204.145 282.806 204.108 282.857 204.061 282.899C204.015 282.941 203.96 282.972 203.9 282.989C203.666 282.995 203.428 282.995 203.194 283C202.943 283.004 202.991 282.851 203.037 282.634V282.634ZM204.705 280.253C204.772 279.889 204.856 279.476 204.918 279.154C204.951 279.058 205.014 278.975 205.096 278.919C205.178 278.862 205.276 278.834 205.375 278.839C205.622 278.821 205.87 278.854 206.104 278.936C206.206 278.978 206.299 279.043 206.375 279.126C206.452 279.208 206.51 279.306 206.547 279.414C206.584 279.521 206.598 279.635 206.589 279.749C206.58 279.863 206.547 279.973 206.494 280.073C206.403 280.248 206.28 280.403 206.131 280.53C205.982 280.656 205.81 280.751 205.626 280.808C205.457 280.854 205.281 280.872 205.106 280.862C204.659 280.813 204.623 280.69 204.699 280.25L204.705 280.253Z" fill="#373435"/>
<path d="M203.276 282.998C203.234 283.002 203.192 282.997 203.153 282.982C203.114 282.967 203.078 282.943 203.049 282.913C202.975 282.821 203 282.697 203.027 282.567L203.035 282.521C203.172 281.791 203.31 281.062 203.449 280.333L203.786 278.554C203.782 278.484 203.791 278.415 203.815 278.35C203.838 278.284 203.874 278.225 203.921 278.175C203.974 278.117 204.038 278.072 204.109 278.042C204.18 278.012 204.257 277.998 204.334 278.001H206.623C206.861 277.993 207.096 278.053 207.303 278.174C207.51 278.295 207.68 278.472 207.796 278.685C207.958 278.989 208.026 279.336 207.991 279.681C207.94 280.264 207.689 280.81 207.284 281.221L207.272 281.232C206.939 281.521 206.532 281.703 206.099 281.756C205.898 281.762 205.702 281.765 205.506 281.769L204.92 281.782H204.908C204.75 281.768 204.553 281.798 204.518 281.933C204.482 282.068 204.454 282.179 204.42 282.301C204.386 282.424 204.359 282.554 204.322 282.68C204.295 282.752 204.252 282.816 204.196 282.869C204.141 282.921 204.075 282.96 204.004 282.982L203.985 282.99H203.966L203.628 282.995L203.287 283L203.276 282.998ZM203.21 282.777C203.234 282.783 203.26 282.786 203.284 282.784L203.628 282.779H203.943C204.049 282.731 204.109 282.678 204.126 282.624C204.16 282.5 204.19 282.377 204.223 282.254C204.257 282.131 204.284 282.004 204.321 281.877C204.385 281.662 204.614 281.546 204.928 281.575L205.508 281.562L206.095 281.549C206.484 281.498 206.85 281.333 207.15 281.072C207.518 280.699 207.746 280.203 207.794 279.673C207.826 279.367 207.765 279.058 207.62 278.789C207.519 278.611 207.373 278.465 207.198 278.365C207.023 278.266 206.825 278.216 206.625 278.222H204.329C204.281 278.22 204.233 278.228 204.189 278.247C204.145 278.265 204.105 278.294 204.072 278.329C204.044 278.359 204.022 278.395 204.009 278.434C203.995 278.473 203.99 278.515 203.994 278.557V278.587L203.655 280.382L203.241 282.57L203.232 282.617C203.217 282.671 203.21 282.727 203.212 282.784L203.21 282.777ZM205.215 280.955H205.112C205.029 280.957 204.947 280.942 204.87 280.911C204.793 280.88 204.723 280.834 204.664 280.775C204.577 280.655 204.585 280.496 204.63 280.244L204.665 280.043L204.672 280.05C204.706 279.869 204.743 279.683 204.777 279.508L204.849 279.165C204.889 279.053 204.963 278.957 205.06 278.892C205.157 278.827 205.272 278.796 205.388 278.803C205.635 278.786 205.882 278.82 206.116 278.904C206.219 278.942 206.314 279.001 206.393 279.079C206.472 279.157 206.535 279.251 206.577 279.355C206.624 279.48 206.645 279.614 206.64 279.748C206.635 279.882 206.604 280.014 206.548 280.135L206.541 280.148C206.448 280.327 206.321 280.486 206.169 280.614C206.016 280.743 205.84 280.839 205.651 280.897C205.508 280.933 205.362 280.952 205.215 280.955V280.955ZM204.811 280.441C204.795 280.508 204.803 280.579 204.831 280.642C204.865 280.688 204.961 280.719 205.132 280.738C205.289 280.746 205.446 280.729 205.597 280.688C205.76 280.637 205.911 280.554 206.042 280.442C206.173 280.331 206.281 280.194 206.36 280.04C206.403 279.946 206.427 279.844 206.432 279.741C206.436 279.637 206.42 279.534 206.385 279.436C206.353 279.36 206.306 279.29 206.247 279.233C206.188 279.176 206.118 279.132 206.042 279.104C205.83 279.03 205.606 279.001 205.383 279.018C205.309 279.012 205.236 279.032 205.174 279.073C205.112 279.115 205.065 279.177 205.041 279.249L204.982 279.551C204.935 279.789 204.884 280.049 204.84 280.286L204.811 280.441Z" fill="#FEFEFE"/>
<path d="M186.95 289C186.829 288.877 186.727 288.735 186.647 288.58C186.523 288.339 186.463 288.067 186.473 287.793C186.211 283.051 186.442 278.904 187.867 275.515C188.042 275.099 188.069 274.974 188.433 274.783C189.546 274.35 190.739 274.204 191.916 274.355C191.952 274.248 192.024 274.141 191.992 274.034C190.928 273.944 189.856 274.034 188.818 274.301C188.112 274.421 187.424 274.553 187.255 275.742C185.83 279.742 185.933 283.53 186.081 287.252C186.08 287.52 186.118 287.788 186.194 288.044C186.472 288.982 186.74 288.95 186.951 288.999L186.95 289Z" fill="#29F48F"/>
<path d="M192 288C192 287.136 191.932 286.273 191.932 285.405C191.898 284.91 191.796 284.423 191.627 283.959C191.444 283.622 191.234 283.301 191 283C191.711 284.413 191.933 286.04 191.627 287.604C191.754 287.737 191.868 287.871 192 288V288Z" fill="#29F48F"/>
<path d="M194 290C193.652 289.908 193.36 289.742 193.167 289.528C193.107 287.687 193.055 285.842 193 284L193.418 284.279C193.512 284.667 193.555 285.06 193.547 285.453L193.675 285.676C193.673 287.12 193.781 288.564 194 290V290Z" fill="#29F48F"/>
<path d="M193.987 290L193.895 289.975C193.512 289.864 193.195 289.637 193.009 289.34L193 289.325V289.303C193 288.709 193.013 288.093 193.013 287.491V287.476L193.022 287.463C193.221 287.165 193.392 286.973 193.579 287.003C193.725 287.027 193.889 287.167 194 288.016C194 288.648 193.987 289.291 193.987 289.921V290ZM193.141 289.296C193.296 289.536 193.545 289.727 193.847 289.837C193.847 289.234 193.854 288.62 193.861 288.024C193.758 287.234 193.611 287.126 193.553 287.116C193.495 287.106 193.382 287.167 193.158 287.505C193.151 288.101 193.151 288.709 193.141 289.297V289.296Z" fill="#373435"/>
<path d="M192.034 283.31C192.036 283.205 192.025 283.1 192 283C192.038 283.012 192.076 283.019 192.114 283.032L192.717 283.683C192.801 283.636 192.867 283.547 192.903 283.436C192.941 283.435 192.979 283.446 193.014 283.467C193.048 283.489 193.079 283.52 193.103 283.56C193.112 284.078 193.084 284.59 193.093 285.107C193.156 285.178 193.196 285.277 193.207 285.386C193.457 285.399 193.705 285.431 193.952 285.481C193.966 285.563 193.986 285.614 194 285.696C193.721 285.655 193.44 285.655 193.161 285.696V285.93C193.38 285.916 193.599 285.937 193.814 285.994L193.837 286.164C193.605 286.128 193.37 286.132 193.139 286.177C193.172 287.451 193.172 288.726 193.139 290C193.062 289.76 192.916 289.526 192.835 289.286C192.98 287.652 192.999 286.002 192.892 284.363C192.671 283.929 192.377 283.568 192.034 283.31V283.31Z" fill="#373435"/>
<path d="M193.004 290C192.969 289.887 192.928 289.779 192.882 289.676C192.832 289.563 192.787 289.445 192.749 289.322L192.734 289.274L192.739 289.221C192.857 287.692 192.874 286.149 192.787 284.615C192.61 284.245 192.382 283.936 192.119 283.71L192.049 283.641L192.064 283.516C192.065 283.471 192.06 283.426 192.05 283.383C192.045 283.352 192.04 283.321 192.036 283.289L192 283L192.19 283.071L192.23 283.084C192.249 283.084 192.267 283.094 192.285 283.102L192.312 283.112L192.77 283.672C192.783 283.653 192.794 283.63 192.8 283.605L192.831 283.487H192.918C192.971 283.486 193.022 283.504 193.069 283.539C193.116 283.574 193.157 283.625 193.189 283.688L193.21 283.734V283.791C193.214 284.043 193.21 284.295 193.206 284.539C193.206 284.755 193.199 284.978 193.201 285.198C193.228 285.244 193.251 285.296 193.269 285.352C193.399 285.36 193.527 285.386 193.653 285.41L193.814 285.44L193.902 285.455L193.922 285.585C193.926 285.614 193.932 285.642 193.938 285.67C193.946 285.706 193.955 285.744 193.962 285.788L194 286.038L193.83 286.018H193.799L193.857 286.491L193.691 286.465C193.543 286.439 193.394 286.435 193.245 286.454C193.269 287.616 193.269 288.78 193.245 289.942L193.004 290ZM192.993 289.216L193.007 289.258V289C193.004 289.072 192.999 289.144 192.993 289.216ZM192.824 284.067C192.874 284.147 192.919 284.232 192.961 284.321V283.913C192.922 283.976 192.875 284.029 192.824 284.067V284.067Z" fill="#373435"/>
<path d="M193 274C193.473 273.911 193.929 273.686 194.341 273.339C195.156 272.683 196.066 272.306 197 272.235C196.614 271.984 196.179 271.932 195.769 272.088C194.763 272.438 193.819 273.09 193 274V274Z" fill="#29F48F"/>
<path d="M198 273.637C200.305 272.873 202.764 273.001 205 274C202.802 272.888 200.335 272.697 198.027 273.459C198.026 273.582 198 273.52 198 273.637V273.637Z" fill="#29F48F"/>
<path d="M55 282V258H51V286H67V282H55Z" fill="#29F48F"/>
<path d="M43 258H35C33.9391 258 32.9217 258.421 32.1716 259.172C31.4214 259.922 31 260.939 31 262V282C31 283.061 31.4214 284.078 32.1716 284.828C32.9217 285.579 33.9391 286 35 286H37V290C37 291.061 37.4214 292.078 38.1716 292.828C38.9217 293.579 39.9391 294 41 294H45V290H41V286H43C44.0609 286 45.0783 285.579 45.8284 284.828C46.5786 284.078 47 283.061 47 282V262C47 260.939 46.5786 259.922 45.8284 259.172C45.0783 258.421 44.0609 258 43 258ZM35 282V262H43V282H35Z" fill="#29F48F"/>
<path d="M23 286H11V282H23V274H15C13.9391 274 12.9217 273.579 12.1716 272.828C11.4214 272.078 11 271.061 11 270V262C11 260.939 11.4214 259.922 12.1716 259.172C12.9217 258.421 13.9391 258 15 258H27V262H15V270H23C24.0609 270 25.0783 270.421 25.8284 271.172C26.5786 271.922 27 272.939 27 274V282C27 283.061 26.5786 284.078 25.8284 284.828C25.0783 285.579 24.0609 286 23 286Z" fill="#29F48F"/>
<path d="M365.749 246.487C365.437 246.487 365.229 246.549 365.019 246.625V246.673H365.051C365.197 247.07 365.437 247.379 365.623 247.747C365.769 248.163 365.893 248.59 366.029 249.005L366.071 248.943C366.321 248.681 366.447 248.269 366.447 247.638C366.343 247.453 366.321 247.256 366.229 247.085C366.125 246.823 365.895 246.687 365.749 246.487ZM337.384 298.293H334.916C334.842 292.509 334.602 286.733 334.198 280.978H334.178L330.418 298.293H328.532L324.802 280.978H324.77C324.48 286.741 324.307 292.515 324.25 298.293H322C322.122 291.032 322.487 283.784 323.094 276.576H326.156L329.718 292.527H329.738L333.332 276.576H336.248C336.894 284.491 337.28 291.729 337.394 298.293H337.384ZM348.093 282.268C347.093 290.304 345.759 296.149 344.125 299.783C342.833 302.589 341.427 304 339.895 304C339.489 304 338.989 303.814 338.385 303.446V301.515C338.687 301.577 339.031 301.621 339.417 301.621C340.135 301.621 340.709 301.314 341.147 300.746C341.667 300.039 341.929 299.244 341.929 298.37C341.929 297.757 341.731 296.529 341.315 294.659L338.617 282.268H341.045L342.983 291.532C343.421 293.649 343.609 295.107 343.525 295.949C344.597 291.777 345.337 287.206 345.755 282.268H348.093ZM380.968 298.293H373.948V276.576H376.312V295.625H380.968V298.293ZM372.114 298.817L369.405 296.853C369.645 296.562 369.873 296.241 370.084 295.873C371.24 293.894 371.814 290.934 371.814 287.039C371.814 279.845 369.897 276.258 366.063 276.258C364.187 276.258 362.719 277.162 361.667 278.988C360.521 280.981 359.937 283.926 359.937 287.807C359.937 291.626 360.447 294.418 361.469 296.211C362.407 297.807 363.813 298.62 365.699 298.62C366.397 298.62 367.043 298.496 367.627 298.237L371.16 301.273L372.128 298.82L372.114 298.817ZM363.333 293.938C362.729 292.527 362.437 290.257 362.437 287.127C362.437 281.653 363.563 278.923 365.823 278.923C367.001 278.923 367.875 279.583 368.427 280.887C369.021 282.312 369.323 284.553 369.323 287.651C369.323 293.158 368.187 295.934 365.937 295.934C364.749 295.934 363.885 295.275 363.323 293.97L363.333 293.938ZM358.915 292.283C358.915 294.123 358.457 295.643 357.529 296.806C356.613 297.987 355.393 298.585 353.841 298.585C352.393 298.585 351.007 297.91 349.643 296.559L350.279 294.689C351.445 295.549 352.497 295.979 353.457 295.979C354.343 295.979 355.041 295.687 355.541 295.119C356.041 294.536 356.343 293.723 356.343 292.695C356.343 291.406 355.729 290.301 354.613 289.382C353.581 288.54 351.509 286.806 351.509 286.806C350.383 285.596 349.831 284.306 349.831 282.174C349.831 280.41 350.247 278.999 351.081 277.925C351.925 276.82 352.997 276.284 354.331 276.284C355.658 276.267 356.959 276.828 358.071 277.895L357.499 279.765C356.605 279.186 355.641 278.878 354.665 278.861C353.905 278.861 353.321 279.138 352.915 279.674C352.509 280.21 352.259 280.884 352.259 281.729C352.259 283.019 352.885 284.123 354.029 285.071C355.081 285.914 357.195 287.695 357.195 287.695C358.351 288.891 358.925 290.181 358.925 292.28L358.915 292.283ZM383.928 269.294C382.5 269.247 381.396 269.462 380.47 270.045C380.21 270.198 379.782 270.198 379.74 270.69C379.886 270.904 379.906 271.243 380.032 271.532C380.25 272.053 380.616 272.76 380.96 273.128C381.336 273.558 381.71 273.988 382.096 274.356C382.794 274.986 383.576 275.354 384.262 275.981C384.648 276.349 385.044 276.823 385.428 277.209C385.626 277.409 385.75 277.763 386 277.883V277.807C385.874 277.577 385.844 277.239 385.718 276.965C385.54 276.703 385.364 276.473 385.186 276.214C384.664 275.194 384.039 274.299 383.332 273.561C382.76 272.992 381.51 272.194 381.28 271.228L381.248 271.167C381.634 271.119 382.092 270.904 382.466 270.751C383.07 270.522 383.632 270.566 384.258 270.336C384.545 270.226 384.83 270.104 385.112 269.968V269.738C384.79 269.264 384.55 268.619 384.216 268.175C383.296 266.989 382.313 265.912 381.278 264.953C380.716 264.417 380.008 264.079 379.414 263.634C379.206 263.481 378.842 263.404 378.726 263.142C378.404 262.559 378.216 261.808 377.986 261.116C377.463 259.619 376.976 258.095 376.528 256.546C376.206 255.518 376.018 254.505 375.622 253.554C373.788 249.09 371.788 246.393 368.725 243.74C368.069 243.186 367.277 242.956 366.443 242.665C365.995 242.635 365.557 242.588 365.109 242.559C364.817 242.373 364.537 241.884 364.287 241.637C363.267 240.686 360.641 238.645 359.901 241.346C359.421 243.062 360.609 244.735 361.027 245.595C361.329 246.207 361.715 246.885 361.933 247.559C362.059 248.018 362.089 248.495 362.215 248.969C362.497 250.121 362.767 251.408 363.143 252.482C363.341 253.036 363.549 253.616 363.799 254.108C363.945 254.399 364.195 254.523 364.247 254.997C363.997 255.533 363.977 256.316 363.841 256.961C363.195 259.935 363.445 263.602 364.351 265.795C364.643 266.455 365.319 267.898 366.227 267.344C367.029 266.87 366.853 265.38 367.081 264.061C367.133 263.74 367.101 263.54 367.207 263.325V263.387C367.467 264.123 367.717 264.83 367.947 265.566C368.489 266.856 369.457 268.189 370.26 269.079C370.688 269.553 371.02 270.369 371.552 270.657V270.581H371.51C371.396 270.351 371.25 270.242 371.104 270.059C370.766 269.567 370.452 269.039 370.166 268.481C369.425 267.009 368.759 265.383 368.175 263.711C367.894 262.884 367.637 262.04 367.405 261.181C367.301 260.875 367.301 260.398 367.123 260.245C366.853 260.813 366.457 261.302 366.269 262.023C365.925 263.142 365.893 264.538 365.759 265.981C365.697 266.01 365.727 265.981 365.697 266.043C365.125 265.828 364.927 264.968 364.717 264.232C364.175 262.362 364.091 259.37 364.551 257.223C364.677 256.67 365.207 254.938 364.999 254.417C364.885 253.911 364.531 253.619 364.343 253.222C364.103 252.73 363.863 252.103 363.697 251.549C363.269 250.077 363.061 248.451 362.593 246.979C362.385 246.304 362.009 245.598 361.707 244.97C361.363 244.264 360.989 243.76 360.727 242.93C360.633 242.638 360.509 242.164 360.655 241.855C360.687 241.64 360.759 241.563 360.905 241.502C361.135 241.21 361.801 241.578 362.031 241.746C362.687 242.129 363.239 242.497 363.791 243.051C364.041 243.313 364.311 243.801 364.635 243.94H365.011C365.583 244.125 366.219 243.987 366.751 244.231C367.699 244.676 368.553 245.321 369.323 246.025C371.678 248.25 373.593 251.35 374.876 255.012C375.094 255.61 375.188 256.163 375.386 256.791C375.75 258.095 376.22 259.397 376.594 260.639C376.968 261.882 377.324 263.139 377.864 264.167C378.134 264.721 379.198 265.009 379.686 265.286C380.04 265.53 380.592 265.745 380.904 266.022C381.518 266.576 382.122 267.203 382.696 267.815C382.988 268.107 383.874 268.767 383.926 269.288L383.928 269.294Z" fill="#29F48F"/>
<path d="M194.241 140.819H199.329L196.639 126.982L191.701 152H189.454L195.46 121.948C195.721 120.734 196.156 120 196.639 120C197.106 120 197.541 120.708 197.794 121.897L203.824 152H201.577L200.517 146.409H195.365L194.242 140.819H194.241ZM217.585 146.409V120.303H215.678V148.964C215.678 149.748 215.773 150.507 215.955 151.089C216.137 151.671 216.382 152 216.651 152H225.347L226.471 146.409H217.584L217.585 146.409ZM186.036 141.729C187.887 141.729 189.391 136.948 189.391 131.029C189.391 125.109 187.887 120.303 186.036 120.303H177.693V152H179.599V125.894H185.909C186.795 125.894 187.508 128.197 187.508 131.03C187.508 133.863 186.795 136.164 185.909 136.164L180.533 136.139L186.226 152H188.995L185.165 141.73H186.036L186.036 141.729ZM165.958 152C163.221 152 161 144.917 161 136.164C161 127.412 163.221 120.304 165.958 120.304H171.721C174.459 120.304 176.679 127.412 176.679 136.164C176.679 144.917 174.459 152 171.721 152H165.958ZM171.593 146.409C173.366 146.409 174.803 141.83 174.803 136.164C174.803 130.498 173.366 125.894 171.593 125.894H166.086C164.313 125.894 162.876 130.498 162.876 136.164C162.876 141.83 164.313 146.409 166.086 146.409H171.593H171.593ZM207.804 152C205.067 152 202.843 144.917 202.843 136.164C202.843 127.412 205.067 120.304 207.804 120.304H214.649L213.533 125.894H207.931C206.158 125.894 204.718 130.498 204.718 136.164C204.718 141.83 206.158 146.409 207.931 146.409H214.807L213.683 152H207.804ZM231.124 146.409C229.66 146.409 228.418 143.273 228.038 138.947H236.188L237.312 133.356H228.038C228.418 129.056 229.66 125.894 231.124 125.894H236.718L237.85 120.303H230.997C228.259 120.303 226.036 127.411 226.036 136.163C226.036 144.916 228.259 151.999 230.997 151.999H236.876L238 146.409H231.124H231.124Z" fill="#29F48F"/>
</g>
<g clip-path="url(#clip2)">
<path d="M202.5 186.289C194.19 186.289 187.454 193.677 187.454 202.791V205.663C187.454 206.803 188.296 207.726 189.335 207.726H215.665C216.704 207.726 217.546 206.803 217.546 205.663V202.791C217.546 193.677 210.81 186.289 202.5 186.289V186.289Z" fill="#565E75"/>
<path d="M202.5 186.289C194.19 186.289 187.454 193.677 187.454 202.791V205.663C187.454 206.803 188.296 207.726 189.335 207.726H198.011C198.011 196.169 198.011 188.611 202.5 186.289V186.289Z" fill="#404656"/>
<path d="M202.5 186.289C195.182 186.289 192.275 198.696 192.275 207.726H212.725C212.725 198.696 209.818 186.289 202.5 186.289V186.289Z" fill="#FBF1CF"/>
<path d="M202.5 186.289C195.182 186.289 192.275 198.696 192.275 207.726H198.011C198.011 196.169 198.011 188.611 202.5 186.289V186.289Z" fill="#FAE0BD"/>
<path d="M203.538 191.355L204.138 192.689C204.307 193.063 204.632 193.323 205.009 193.383L206.352 193.597C207.301 193.748 207.68 195.028 206.993 195.762L206.022 196.8C205.749 197.092 205.625 197.512 205.689 197.924L205.918 199.39C206.08 200.427 205.088 201.217 204.239 200.728L203.039 200.036C202.701 199.841 202.299 199.841 201.961 200.036L200.761 200.728C199.912 201.217 198.92 200.427 199.082 199.39L199.311 197.924C199.375 197.512 199.251 197.092 198.978 196.8L198.007 195.762C197.32 195.028 197.699 193.748 198.648 193.597L199.991 193.383C200.368 193.323 200.693 193.063 200.862 192.689L201.462 191.355C201.887 190.411 203.113 190.411 203.538 191.355V191.355Z" fill="#E68A97"/>
<path d="M205.871 199.086C203.916 198.402 202.5 196.395 202.5 194.024C202.5 192.917 202.809 191.889 203.338 191.038C202.811 190.427 201.832 190.533 201.462 191.355L200.862 192.689C200.693 193.063 200.368 193.323 199.991 193.383L198.648 193.597C197.699 193.748 197.32 195.027 198.007 195.762L198.978 196.8C199.251 197.092 199.375 197.512 199.311 197.924L199.082 199.39C198.92 200.427 199.912 201.217 200.761 200.728L201.961 200.036C202.299 199.841 202.701 199.841 203.039 200.036L204.239 200.728C205.088 201.217 206.08 200.427 205.918 199.39L205.871 199.086Z" fill="#E26E7E"/>
<path d="M215.665 207.726C215.665 207.726 210.002 203.627 202.5 203.627C194.998 203.627 189.335 207.726 189.335 207.726C189.335 207.726 189.115 215.711 191.986 215.711C194.857 215.711 196.202 211.661 202.5 211.661C208.798 211.661 210.143 215.711 213.014 215.711C215.885 215.711 215.665 207.726 215.665 207.726V207.726Z" fill="#6E768F"/>
<path d="M189.335 207.726C189.335 207.726 189.115 215.711 191.986 215.711C194.22 215.711 195.531 213.258 198.971 212.17C198.971 212.168 198.971 212.166 198.97 212.165C197.056 210.44 196.481 206.418 198.014 204.102C192.852 205.181 189.335 207.726 189.335 207.726V207.726Z" fill="#565E75"/>
<path d="M213.46 190.77C210.533 187.559 206.64 185.791 202.5 185.791H202.5C202.5 185.791 202.5 185.791 202.5 185.791C202.441 185.791 202.383 185.792 202.325 185.794C198.251 185.843 194.426 187.605 191.54 190.77C188.612 193.981 187 198.25 187 202.791V205.663C187 206.903 187.808 207.94 188.876 208.174C188.878 209.591 189.011 213.821 190.478 215.48C190.906 215.963 191.414 216.209 191.986 216.209C193.279 216.209 194.256 215.502 195.388 214.683C196.942 213.559 198.877 212.159 202.5 212.159C206.123 212.159 208.058 213.559 209.612 214.683C210.744 215.502 211.721 216.209 213.014 216.209C213.586 216.209 214.094 215.964 214.522 215.48C215.989 213.821 216.122 209.591 216.124 208.174C217.192 207.94 218 206.903 218 205.663V202.791C218 198.25 216.388 193.981 213.46 190.77V190.77ZM187.908 205.663V202.791C187.908 195.707 192.127 189.684 197.953 187.584C196.441 188.91 195.149 190.96 194.125 193.691C194.029 193.945 194.14 194.236 194.372 194.341C194.604 194.445 194.869 194.324 194.964 194.07C196.211 190.748 198.53 186.787 202.5 186.787H202.5C206.154 186.787 208.387 190.182 209.617 193.03C211.015 196.267 211.946 200.695 212.201 205.272C211.336 204.89 210.341 204.506 209.236 204.169C208.995 204.095 208.744 204.25 208.677 204.515C208.61 204.78 208.751 205.055 208.993 205.128C210.214 205.501 211.304 205.939 212.224 206.363C212.216 206.574 212.211 206.798 212.205 207.031C212.169 208.5 212.109 210.957 211.269 210.957C210.493 210.957 209.76 210.492 208.833 209.903C207.366 208.972 205.541 207.813 202.5 207.813C199.459 207.813 197.634 208.972 196.167 209.903C195.24 210.492 194.507 210.957 193.731 210.957C192.9 210.957 192.836 208.523 192.799 207.068C192.792 206.821 192.786 206.583 192.777 206.361C192.945 206.284 193.117 206.206 193.296 206.129C195.401 205.215 198.707 204.125 202.5 204.125C204.058 204.125 205.659 204.307 207.257 204.668C207.502 204.723 207.743 204.549 207.793 204.28C207.843 204.011 207.685 203.747 207.44 203.692C205.782 203.318 204.12 203.129 202.5 203.129C198.553 203.129 195.121 204.262 192.937 205.213C192.89 205.234 192.845 205.254 192.799 205.274C192.984 201.971 193.528 198.671 194.351 195.906C194.428 195.644 194.298 195.363 194.06 195.278C193.821 195.192 193.565 195.335 193.487 195.597C192.601 198.578 192.029 202.158 191.869 205.707C190.467 206.392 189.536 206.999 189.211 207.222C188.482 207.153 187.908 206.48 187.908 205.663V205.663ZM213.87 214.786C213.616 215.073 213.336 215.213 213.014 215.213C211.994 215.213 211.163 214.612 210.112 213.852C208.456 212.654 206.396 211.163 202.5 211.163C198.604 211.163 196.544 212.654 194.888 213.852C193.837 214.612 193.006 215.213 191.986 215.213C191.664 215.213 191.384 215.073 191.13 214.786C189.976 213.482 189.769 209.676 189.784 208.006C190.114 207.786 190.844 207.323 191.883 206.794C191.885 206.893 191.888 206.994 191.891 207.097C191.916 208.074 191.945 209.182 192.137 210.088C192.398 211.326 192.935 211.953 193.731 211.953C194.751 211.953 195.618 211.403 196.622 210.766C197.995 209.894 199.703 208.809 202.5 208.809C205.297 208.809 207.005 209.894 208.378 210.766C209.382 211.403 210.249 211.953 211.269 211.953C212.07 211.953 212.608 211.32 212.87 210.071C213.061 209.157 213.089 208.042 213.113 207.058C213.115 206.97 213.117 206.883 213.119 206.797C214.158 207.326 214.886 207.787 215.216 208.006C215.231 209.676 215.024 213.482 213.87 214.786V214.786ZM217.092 205.663C217.092 206.48 216.518 207.153 215.789 207.222C215.462 206.998 214.531 206.389 213.132 205.705C212.912 200.832 211.934 196.068 210.438 192.604C209.49 190.408 208.342 188.724 207.031 187.578C212.866 189.674 217.092 195.701 217.092 202.791V205.663Z" fill="black"/>
<path d="M198.661 197.157C198.827 197.334 198.903 197.589 198.863 197.84L198.634 199.306C198.53 199.974 198.775 200.636 199.275 201.034C199.558 201.259 199.888 201.374 200.221 201.374C200.477 201.374 200.734 201.306 200.972 201.169L202.173 200.477C202.378 200.358 202.622 200.358 202.827 200.477L204.028 201.169C204.575 201.484 205.225 201.433 205.725 201.034C206.225 200.636 206.47 199.974 206.366 199.306L206.137 197.839C206.097 197.589 206.173 197.334 206.339 197.157L207.31 196.118C207.752 195.645 207.909 194.951 207.718 194.307C207.527 193.662 207.028 193.201 206.417 193.104L205.075 192.89C204.846 192.854 204.648 192.696 204.545 192.468L203.945 191.134C203.672 190.527 203.118 190.149 202.5 190.149C201.882 190.149 201.328 190.527 201.055 191.134L200.455 192.468C200.352 192.696 200.154 192.854 199.925 192.89L198.583 193.104C197.972 193.201 197.473 193.662 197.282 194.307C197.091 194.951 197.248 195.645 197.69 196.118L198.661 197.157ZM198.146 194.615C198.231 194.329 198.443 194.133 198.714 194.09L200.056 193.876C200.581 193.792 201.034 193.431 201.269 192.909L201.869 191.575C201.99 191.306 202.226 191.145 202.5 191.145C202.774 191.145 203.009 191.306 203.131 191.575L203.731 192.909C203.966 193.431 204.419 193.792 204.944 193.876L206.286 194.09C206.557 194.133 206.769 194.329 206.854 194.615C206.939 194.9 206.872 195.196 206.676 195.405L205.705 196.444C205.325 196.85 205.152 197.434 205.241 198.008L205.471 199.474C205.517 199.77 205.412 200.052 205.191 200.228C204.969 200.405 204.693 200.427 204.45 200.287L203.25 199.595C202.78 199.324 202.22 199.324 201.75 199.595L200.55 200.287C200.307 200.427 200.031 200.405 199.809 200.228C199.588 200.052 199.483 199.77 199.529 199.474L199.759 198.008C199.848 197.435 199.675 196.85 199.295 196.444L198.324 195.405C198.128 195.196 198.061 194.9 198.146 194.615V194.615Z" fill="black"/>
</g>
<defs>
<linearGradient id="paint0_linear" x1="192.299" y1="271.542" x2="151.536" y2="246.993" gradientUnits="userSpaceOnUse">
<stop stop-color="#29F48F"/>
<stop offset="0.588" stop-color="#7182B8"/>
<stop offset="1" stop-color="#576490"/>
</linearGradient>
<clipPath id="clip0">
<rect width="400" height="425" fill="white"/>
</clipPath>
<clipPath id="clip1">
<rect width="64" height="64" fill="white" transform="translate(290 155)"/>
</clipPath>
<clipPath id="clip2">
<rect width="31" height="34" fill="white" transform="translate(187 184)"/>
</clipPath>
</defs>
</svg>
