<svg width="604" height="103" viewBox="0 0 604 103" fill="none" xmlns="http://www.w3.org/2000/svg">
<path d="M88.48 0.911997V102H63.856V60.384H25.552V102H0.928V0.911997H25.552V40.512H63.856V0.911997H88.48Z" fill="#29F48F"/>
<path d="M123.336 102.768C118.088 102.768 113.352 101.648 109.128 99.408C104.968 97.168 101.672 93.968 99.24 89.808C96.872 85.648 95.688 80.784 95.688 75.216C95.688 69.712 96.904 64.88 99.336 60.72C101.768 56.496 105.096 53.264 109.32 51.024C113.544 48.784 118.28 47.664 123.528 47.664C128.776 47.664 133.512 48.784 137.736 51.024C141.96 53.264 145.288 56.496 147.72 60.72C150.152 64.88 151.368 69.712 151.368 75.216C151.368 80.72 150.12 85.584 147.624 89.808C145.192 93.968 141.832 97.168 137.544 99.408C133.32 101.648 128.584 102.768 123.336 102.768ZM123.336 88.56C126.472 88.56 129.128 87.408 131.304 85.104C133.544 82.8 134.664 79.504 134.664 75.216C134.664 70.928 133.576 67.632 131.4 65.328C129.288 63.024 126.664 61.872 123.528 61.872C120.328 61.872 117.672 63.024 115.56 65.328C113.448 67.568 112.392 70.864 112.392 75.216C112.392 79.504 113.416 82.8 115.464 85.104C117.576 87.408 120.2 88.56 123.336 88.56ZM174.093 30.96V102H157.677V30.96H174.093ZM180.325 75.12C180.325 69.616 181.349 64.784 183.397 60.624C185.509 56.464 188.357 53.264 191.941 51.024C195.525 48.784 199.525 47.664 203.941 47.664C207.717 47.664 211.013 48.432 213.829 49.968C216.709 51.504 218.917 53.52 220.453 56.016V48.432H236.87V102H220.453V94.416C218.853 96.912 216.613 98.928 213.733 100.464C210.917 102 207.621 102.768 203.845 102.768C199.493 102.768 195.525 101.648 191.941 99.408C188.357 97.104 185.509 93.872 183.397 89.712C181.349 85.488 180.325 80.624 180.325 75.12ZM220.453 75.216C220.453 71.12 219.301 67.888 216.997 65.52C214.757 63.152 212.005 61.968 208.741 61.968C205.477 61.968 202.693 63.152 200.389 65.52C198.149 67.824 197.029 71.024 197.029 75.12C197.029 79.216 198.149 82.48 200.389 84.912C202.693 87.28 205.477 88.464 208.741 88.464C212.005 88.464 214.757 87.28 216.997 84.912C219.301 82.544 220.453 79.312 220.453 75.216ZM332.641 47.856C339.297 47.856 344.577 49.872 348.482 53.904C352.449 57.936 354.433 63.536 354.433 70.704V102H338.113V72.912C338.113 69.456 337.185 66.8 335.329 64.944C333.537 63.024 331.041 62.064 327.841 62.064C324.641 62.064 322.113 63.024 320.257 64.944C318.465 66.8 317.569 69.456 317.569 72.912V102H301.249V72.912C301.249 69.456 300.321 66.8 298.465 64.944C296.673 63.024 294.177 62.064 290.977 62.064C287.777 62.064 285.249 63.024 283.393 64.944C281.601 66.8 280.705 69.456 280.705 72.912V102H264.289V48.432H280.705V55.152C282.369 52.912 284.545 51.152 287.233 49.872C289.921 48.528 292.961 47.856 296.353 47.856C300.385 47.856 303.969 48.72 307.105 50.448C310.305 52.176 312.801 54.64 314.593 57.84C316.449 54.896 318.977 52.496 322.177 50.64C325.377 48.784 328.865 47.856 332.641 47.856ZM416.411 48.432V102H399.995V94.704C398.331 97.072 396.059 98.992 393.179 100.464C390.363 101.872 387.227 102.576 383.771 102.576C379.675 102.576 376.059 101.68 372.923 99.888C369.787 98.032 367.355 95.376 365.627 91.92C363.899 88.464 363.035 84.4 363.035 79.728V48.432H379.355V77.52C379.355 81.104 380.283 83.888 382.139 85.872C383.995 87.856 386.491 88.848 389.627 88.848C392.827 88.848 395.355 87.856 397.211 85.872C399.067 83.888 399.995 81.104 399.995 77.52V48.432H416.411ZM458.442 47.856C464.714 47.856 469.706 49.904 473.418 54C477.194 58.032 479.082 63.6 479.082 70.704V102H462.762V72.912C462.762 69.328 461.834 66.544 459.978 64.56C458.122 62.576 455.626 61.584 452.49 61.584C449.354 61.584 446.858 62.576 445.002 64.56C443.146 66.544 442.218 69.328 442.218 72.912V102H425.802V48.432H442.218V55.536C443.882 53.168 446.122 51.312 448.938 49.968C451.754 48.56 454.922 47.856 458.442 47.856ZM484.826 75.12C484.826 69.616 485.85 64.784 487.898 60.624C490.01 56.464 492.858 53.264 496.442 51.024C500.026 48.784 504.026 47.664 508.442 47.664C511.962 47.664 515.162 48.4 518.042 49.872C520.986 51.344 523.29 53.328 524.954 55.824V30.96H541.37V102H524.954V94.32C523.418 96.88 521.21 98.928 518.33 100.464C515.514 102 512.218 102.768 508.442 102.768C504.026 102.768 500.026 101.648 496.442 99.408C492.858 97.104 490.01 93.872 487.898 89.712C485.85 85.488 484.826 80.624 484.826 75.12ZM524.954 75.216C524.954 71.12 523.802 67.888 521.498 65.52C519.258 63.152 516.506 61.968 513.242 61.968C509.978 61.968 507.194 63.152 504.89 65.52C502.65 67.824 501.53 71.024 501.53 75.12C501.53 79.216 502.65 82.48 504.89 84.912C507.194 87.28 509.978 88.464 513.242 88.464C516.506 88.464 519.258 87.28 521.498 84.912C523.802 82.544 524.954 79.312 524.954 75.216ZM575.23 102.768C569.982 102.768 565.246 101.648 561.022 99.408C556.862 97.168 553.566 93.968 551.134 89.808C548.766 85.648 547.582 80.784 547.582 75.216C547.582 69.712 548.798 64.88 551.23 60.72C553.662 56.496 556.99 53.264 561.214 51.024C565.438 48.784 570.174 47.664 575.422 47.664C580.67 47.664 585.406 48.784 589.63 51.024C593.854 53.264 597.182 56.496 599.614 60.72C602.046 64.88 603.262 69.712 603.262 75.216C603.262 80.72 602.014 85.584 599.518 89.808C597.086 93.968 593.726 97.168 589.438 99.408C585.214 101.648 580.478 102.768 575.23 102.768ZM575.23 88.56C578.366 88.56 581.022 87.408 583.198 85.104C585.438 82.8 586.558 79.504 586.558 75.216C586.558 70.928 585.47 67.632 583.294 65.328C581.182 63.024 578.558 61.872 575.422 61.872C572.222 61.872 569.566 63.024 567.454 65.328C565.342 67.568 564.286 70.864 564.286 75.216C564.286 79.504 565.31 82.8 567.358 85.104C569.47 87.408 572.094 88.56 575.23 88.56Z" fill="white"/>
</svg>
