<svg id="Capa_1" enable-background="new 0 0 512 512" height="512" viewBox="0 0 512 512" width="512" xmlns="http://www.w3.org/2000/svg"><g><g><g><path d="m469.5 15.924c13.807 0 25 11.193 25 25v354.306c0 13.807-11.193 25-25 25h-437c-13.807 0-25-11.193-25-25v-354.306c0-13.807 11.193-25 25-25z" fill="#978ecb"/><path d="m479.5 15.923h-28.398c13.807 0 25 11.193 25 25v354.306c0 13.807-11.193 25-25 25h28.398c13.807 0 25-11.193 25-25v-354.306c0-13.806-11.193-25-25-25z" fill="#6e61b6"/><path d="m494.5 184.06v68.032c0 15.684-2.714 28.398-18.398 28.398-15.684 0-28.398-12.714-28.398-28.398v-68.032c0-15.684 12.714-28.398 28.398-28.398 15.684.001 18.398 12.715 18.398 28.398z" fill="#5b596d"/><path d="m504.5 252.093v-68.033c0-15.684-12.714-28.398-28.398-28.398v124.828c15.684 0 28.398-12.714 28.398-28.397z" fill="#3e3e4d"/><path d="m437.705 388.146c5.523 0 10-4.477 10-10v-320.139c0-5.523-4.477-10-10-10h-388.121c-5.523 0-10 4.477-10 10v320.138c0 5.523 4.477 10 10 10h388.121z" fill="#edf5fa"/><path d="m196.572 350.005-15-6.041-2.13.562c-4.426 1.168-7.726 4.868-8.384 9.398l-8.604 59.285c-1.089 7.5 2.378 14.93 8.823 18.915l38.701 23.93v32.567c0 4.117 3.338 7.455 7.455 7.455h88.717c4.117 0 7.455-3.338 7.455-7.455v-28.777l19.698-13.848c6.309-4.436 10.064-11.665 10.064-19.377v-95.181c0-10.574-2.195-19.146-12.769-19.146-10.574 0-19.147 8.572-19.147 19.146v-7.611c0-10.574-8.572-19.146-19.147-19.146-10.574 0-19.147 8.572-19.147 19.146v-7.61c0-10.575-8.572-19.147-19.147-19.147-10.574 0-19.146 8.572-19.146 19.147v-79.481c0-10.574-8.572-19.147-19.147-19.147-10.574 0-19.147 8.572-19.147 19.147v113.269z" fill="#fed2a4"/><g><path d="m330.598 312.292c-3.486 0-6.751.936-9.567 2.564 5.725 3.31 9.58 9.494 9.58 16.583v95.181c0 7.712-3.755 14.941-10.064 19.377l-15.633 10.99c-2.548 1.792-4.065 4.711-4.065 7.826v23.808c0 4.117-3.338 7.455-7.455 7.455h19.133c4.117 0 7.455-3.338 7.455-7.455v-28.777l19.698-13.848c6.309-4.436 10.064-11.665 10.064-19.377v-95.181c.001-10.574-8.571-19.146-19.146-19.146z" fill="#ffbd86"/></g><path d="m189.072 401.63c4.142 0 7.5-3.357 7.5-7.5v-54.125l-9.567 2.525-5.433 1.434v50.166c0 4.142 3.358 7.5 7.5 7.5z" fill="#ffbd86"/></g></g><g><path d="m476.102 255.14c4.142 0 7.5-3.357 7.5-7.5v-59.127c0-4.143-3.358-7.5-7.5-7.5s-7.5 3.357-7.5 7.5v59.127c0 4.142 3.358 7.5 7.5 7.5z"/><path d="m479.5 8.424h-447c-17.92 0-32.5 14.579-32.5 32.5v354.306c0 17.921 14.58 32.5 32.5 32.5h41.241c4.142 0 7.5-3.357 7.5-7.5s-3.358-7.5-7.5-7.5h-41.241c-9.649 0-17.5-7.851-17.5-17.5v-354.306c0-9.649 7.851-17.5 17.5-17.5h447c9.649 0 17.5 7.851 17.5 17.5v113.977c-5.891-4.234-13.106-6.738-20.898-6.738s-15.007 2.503-20.897 6.737v-96.893c0-9.649-7.851-17.5-17.5-17.5h-87.147c-4.142 0-7.5 3.357-7.5 7.5s3.358 7.5 7.5 7.5h87.147c1.378 0 2.5 1.121 2.5 2.5v320.139c0 1.379-1.122 2.5-2.5 2.5h-80.46v-49.207c0-14.693-11.954-26.647-26.647-26.647-2.967 0-5.9.493-8.725 1.47-2.504.867-4.817 2.085-6.891 3.586-4.7-7.596-13.107-12.666-22.677-12.666-2.707 0-5.314.421-7.777 1.174 15.148-17.068 23.658-39.184 23.658-62.261 0-51.716-42.074-93.789-93.789-93.789-44.925 0-83.663 31.977-92.109 76.032-.78 4.068 1.885 7.998 5.954 8.778 4.063.771 7.998-1.887 8.778-5.954 7.094-37.001 39.636-63.856 77.378-63.856 43.445 0 78.789 35.345 78.789 78.789 0 21.857-9.086 42.69-25.01 57.574-4.107-2.589-8.961-4.097-14.165-4.097-4.174 0-8.126.965-11.646 2.683v-3.826c19.151-10.263 31.37-30.469 31.37-52.333 0-32.719-26.619-59.338-59.338-59.338s-59.338 26.619-59.338 59.338c0 23.085 13.272 43.89 34.013 53.673v20.947c-26.225-8.912-46.258-31.34-51.864-58.733-.83-4.058-4.797-6.671-8.851-5.844-4.058.83-6.675 4.793-5.844 8.852 7.013 34.272 32.99 62.021 66.559 71.425v7.813l-11.544 3.047c-7.348 1.939-12.801 8.052-13.893 15.573l-4.035 27.798h-110.017c-1.378 0-2.5-1.121-2.5-2.5v-320.14c0-1.379 1.122-2.5 2.5-2.5h268.287c4.142 0 7.5-3.357 7.5-7.5s-3.358-7.5-7.5-7.5h-268.287c-9.649 0-17.5 7.851-17.5 17.5v320.139c0 9.649 7.851 17.5 17.5 17.5h107.839l-2.393 16.486c-.029.199-.04.398-.064.598h-48.539c-4.142 0-7.5 3.357-7.5 7.5s3.358 7.5 7.5 7.5h51.105c2.157 4.346 5.494 8.113 9.799 10.774l35.146 21.732v28.386c0 8.246 6.709 14.955 14.955 14.955h95.095c8.247 0 14.956-6.709 14.956-14.955v-24.882l16.512-11.608c7.993-5.619 12.869-14.679 13.217-24.402h122.288c17.92 0 32.5-14.579 32.5-32.5v-354.306c0-17.921-14.58-32.5-32.5-32.5zm-309.441 227.671c0-24.448 19.89-44.338 44.338-44.338s44.338 19.89 44.338 44.338c0 13.454-6.192 26.071-16.37 34.39v-33.749c0-14.693-11.954-26.646-26.647-26.646s-26.646 11.953-26.646 26.646v35.764c-11.772-8.179-19.013-21.669-19.013-36.405zm172.186 190.524c0 5.264-2.571 10.214-6.877 13.241l-19.698 13.849c-1.997 1.404-3.186 3.693-3.186 6.136l.044 28.732-95.05.045v-32.566c0-2.599-1.345-5.013-3.556-6.379l-38.701-23.93c-3.907-2.416-6.005-6.914-5.345-11.46l8.604-59.284c.226-1.557 1.355-2.822 2.876-3.224l7.717-2.037v44.388c0 4.143 3.358 7.5 7.5 7.5s7.5-3.357 7.5-7.5v-54.125-103.269c0-6.422 5.225-11.646 11.646-11.646 6.422 0 11.647 5.225 11.647 11.646v79.482c0 4.143 3.358 7.5 7.5 7.5s7.5-3.357 7.5-7.5c0-6.422 5.225-11.647 11.646-11.647s11.647 5.225 11.647 11.647v7.61c0 4.143 3.358 7.5 7.5 7.5s7.5-3.357 7.5-7.5c0-6.422 5.225-11.646 11.647-11.646s11.647 5.225 11.647 11.646v7.61c0 4.143 3.358 7.5 7.5 7.5s7.5-3.357 7.5-7.5c0-4.958 3.148-9.381 7.825-11.002 1.222-.422 2.543-.645 3.821-.645 6.422 0 11.647 5.225 11.647 11.647v95.181zm133.857-263.456c11.523 0 20.898 9.375 20.898 20.897v68.032c0 11.522-9.375 20.897-20.898 20.897s-20.897-9.375-20.897-20.897v-68.032c0-11.522 9.374-20.897 20.897-20.897zm3.398 249.566h-122.255v-17.084h80.46c9.649 0 17.5-7.851 17.5-17.5v-96.893c5.891 4.234 13.105 6.737 20.897 6.737s15.007-2.504 20.898-6.738v113.977c0 9.651-7.851 17.501-17.5 17.501z"/></g></g></svg>